<?xml version="1.0" encoding="utf-8"?>
<!-- Generator: Adobe Illustrator 16.0.0, SVG Export Plug-In . SVG Version: 6.00 Build 0)  -->
<!DOCTYPE svg PUBLIC "-//W3C//DTD SVG 1.1//EN" "http://www.w3.org/Graphics/SVG/1.1/DTD/svg11.dtd">
<svg version="1.1" xmlns="http://www.w3.org/2000/svg" xmlns:xlink="http://www.w3.org/1999/xlink" x="0px" y="0px"
	 width="575.698px" height="170.855px" viewBox="0 0 575.698 170.855" enable-background="new 0 0 575.698 170.855"
	 xml:space="preserve">
<g id="Person">
	<path fill="#26A65B" d="M83.749,10.075C80.954,5.232,77.223,1.866,72.745,0h45.88c4.104,0,7.271,1.684,9.146,4.857l11.377,19.396
		l12.306-7.279L131.677,52.42l-40.466-0.569l12.496-7.082L83.749,10.075z"/>
	<path fill="#26A65B" d="M54.051,115.408l-9.333-2.353l-8.771,1.458l-2.286,8.564l-1.58,2.809c-1.86,3.16-3.18,8.188-3.18,11.167
		c0,10.63,8.77,19.355,19.4,19.355h33.5v-41H54.051z"/>
	<path fill-rule="evenodd" clip-rule="evenodd" d="M110.171,70.768c-0.04,0.73-0.46,1.64-1.01,2.12
		c-4.92,4.29-9.89,8.53-14.91,12.72c-1.99,1.66-4.9,0.72-5.75-1.72c-0.59-1.67-1.15-3.34-1.78-5c-0.2-0.54-0.57-1.02-1.05-1.86
		c-1.21,2.54-2.27,4.84-3.38,7.1c-2.02,4.11-4.08,8.2-6.05,12.32c-0.16,0.35,0.07,1.14,0.38,1.41c3.51,3,7.12,5.88,10.61,8.91
		c2.97,2.58,3.7,5.95,0.81,9.2c-1.93,2.17-3.86,4.36-5.78,6.54c-3.69,4.2-7.38,8.4-11.1,12.56c-2.48,2.77-4.72,3.14-7.51,1.68
		c-2.79-1.47-3.34-6.01-1.11-8.44c3.92-4.29,7.73-8.68,11.56-13.03c0.24-0.26,0.47-0.53,0.7-0.79c0.58-0.65,1.14-1.31,1.92-2.21
		c-2.83-2.44-5.52-4.78-8.22-7.11c-1.34-1.15-2.73-2.23-4.03-3.42c-0.83-0.76-1.28-0.74-1.87,0.29c-1.83,3.2-4.02,6.285-5.6,9.595
		c-0.76,1.6-1.77,2.775-2.95,3.775h-16.01l-4.38,7.745c-0.29,0.1-0.57,0.167-0.86,0.258c-1.84,0.6-3.55,1.713-5.72,1.093
		c-2.29-0.65-3.96-2.498-3.99-4.948c-0.04-2.69,1.38-4.464,3.84-5.205c3.55-1.08,7.05-2.332,10.57-3.492
		c2.01-0.67,4.01-1.341,6.03-1.961c1.79-0.54,3.24-1.331,4.25-3.111c3.65-6.42,7.76-12.6,11.15-19.15
		c3.88-7.49,7.2-15.28,10.72-22.951c0.5-1.08,0.82-2.06-1.1-2.34c-2.05-0.29-4.03-1.09-6.16-1.7c-1.77,4.64-3.5,8.93-5.05,13.28
		c-0.99,2.76-2.76,4.04-5.14,3.39c-1.89-0.52-3.15-2.64-2.45-4.45c2.28-5.94,4.61-11.86,6.99-17.76c0.75-1.86,3.3-2.7,5.31-2.13
		c4.14,1.17,8.31,2.22,12.46,3.35c2.83,0.78,5.74,1.36,8.45,2.45c3.84,1.55,5.56,5.04,6.97,8.68c1.03,2.69,2.08,5.37,3.2,8.03
		c0.43,1.02,1.15,0.69,1.82,0.12c2.76-2.36,5.49-4.76,8.31-7.04c1.12-0.9,2.31-1.84,4.01-1.05
		C109.131,67.388,110.271,68.698,110.171,70.768z"/>
	<path fill-rule="evenodd" clip-rule="evenodd" d="M80.47,48.354c-0.429-5.813,5.006-10.082,10.026-10.085
		c5.654-0.004,10.333,4.73,10.323,10.384c-0.009,5.332-4.816,10.05-10.083,10.056C84.96,58.717,80.062,54.271,80.47,48.354z"/>
</g>
<g id="Recycle">
	<path fill="#26A65B" d="M27.787,124.229c-1.866,3.351-3.351,8.393-3.351,11.568c0,0.737,0,1.676,0.183,2.977l-23.316-40.1
		C0.556,97.372,0,95.506,0,93.824c0-1.685,0.556-3.731,1.302-5.035l11.194-19.585L0,62.122l40.664-0.753l19.768,35.622
		l-12.679-7.272L27.787,124.229z M45.697,11.202c3.541-6.161,9.329-9.519,16.41-9.519c7.653,0,13.623,3.549,17.91,10.813
		l6.343,10.63l-22.015,38.06L28.723,40.48L45.697,11.202z M48.301,156.494 M154.446,115.648c5.589,0,10.257-1.493,14.171-4.472
		l-23.134,40.283c-1.865,3.167-5.216,5.034-9.131,5.034h-21.832v14.361l-20.888-34.875l20.888-34.885v14.553L154.446,115.648
		L154.446,115.648z M172.341,82.073c1.684,2.984,2.62,6.152,2.62,9.512c0,6.717-4.295,13.805-10.258,17.155
		c-2.802,1.501-6.724,2.437-10.63,2.437h-12.321l-22-38.059l35.623-20.332L172.341,82.073z"/>
</g>
<g id="Text">
	<g>
		<path d="M228.798,31.426c0,7.304-1.463,13.395-4.39,18.272c-2.927,4.878-7.08,8.24-12.458,10.085l13.843,14.396h-10.441
			l-11.193-13.052l-2.017,0.079c-8.517,0-15.102-2.604-19.755-7.812c-4.654-5.207-6.981-12.557-6.981-22.049
			c0-9.413,2.314-16.71,6.941-21.891c4.628-5.182,11.252-7.772,19.875-7.772c8.385,0,14.911,2.63,19.578,7.89
			C226.465,14.834,228.798,22.118,228.798,31.426z M183.078,31.426c0,7.647,1.622,13.474,4.865,17.481
			c3.243,4.008,7.976,6.012,14.199,6.012c6.196,0,10.902-1.978,14.12-5.933c3.217-3.955,4.825-9.809,4.825-17.561
			c0-7.726-1.596-13.546-4.786-17.461c-3.19-3.916-7.884-5.874-14.08-5.874c-6.275,0-11.035,1.984-14.278,5.953
			S183.078,23.806,183.078,31.426z"/>
		<path d="M285.554,2.593v37.415c0,6.592-1.991,11.773-5.972,15.543c-3.981,3.771-9.506,5.656-16.572,5.656
			c-6.987,0-12.406-1.905-16.255-5.715c-3.85-3.81-5.774-9.024-5.774-15.643V2.593h7.317v37.494c0,4.72,1.259,8.372,3.777,10.956
			c2.518,2.584,6.309,3.876,11.371,3.876c4.772,0,8.444-1.279,11.015-3.836c2.571-2.557,3.856-6.249,3.856-11.074V2.593H285.554z"/>
		<path d="M336.653,60.417L329.692,42.5h-22.939l-6.882,17.917h-7.356l22.583-58.061h6.565l22.545,58.061H336.653z M327.517,36.053
			l-6.486-17.521l-2.768-8.662c-0.791,3.164-1.622,6.051-2.492,8.662l-6.565,17.521H327.517z"/>
		<path d="M397.996,60.417h-8.503l-30.969-48.015h-0.316l0.197,3.204c0.316,4.799,0.475,8.965,0.475,12.498v32.313h-6.723V2.593
			h8.424l1.779,2.808l18.984,29.347l10.086,15.702h0.316c-0.053-0.633-0.158-2.894-0.316-6.783
			c-0.158-3.889-0.237-6.704-0.237-8.444V2.593h6.803V60.417z"/>
		<path d="M432.01,60.417h-7.317V9h-18.074V2.593h43.348V9H432.01V60.417z"/>
		<path d="M502.728,2.593v37.415c0,6.592-1.991,11.773-5.973,15.543c-3.981,3.771-9.506,5.656-16.572,5.656
			c-6.987,0-12.405-1.905-16.255-5.715s-5.774-9.024-5.774-15.643V2.593h7.316v37.494c0,4.72,1.26,8.372,3.777,10.956
			c2.518,2.584,6.309,3.876,11.371,3.876c4.772,0,8.444-1.279,11.015-3.836c2.571-2.557,3.856-6.249,3.856-11.074V2.593H502.728z"/>
		<path d="M543.464,60.417L524.4,9.712h-0.316c0.396,4.219,0.593,9.427,0.593,15.623v35.082h-6.723V2.593h10.758l17.837,47.382
			h0.316l18.153-47.382h10.68v57.823h-7.199V24.86c0-3.955,0.185-8.978,0.555-15.069h-0.316l-19.301,50.625H543.464z"/>
		<path d="M178.332,157.617V99.793h7.277v51.337h25.273v6.486H178.332z"/>
		<path d="M254.055,157.617h-32.313V99.793h32.313v6.407h-25.036v18.035h23.572v6.328h-23.572v20.646h25.036V157.617z"/>
		<path d="M304.03,157.617l-6.961-17.917h-22.939l-6.882,17.917h-7.356l22.583-58.061h6.565l22.544,58.061H304.03z M294.894,133.253
			l-6.486-17.521l-2.769-8.662c-0.791,3.164-1.622,6.051-2.492,8.662l-6.565,17.521H294.894z"/>
		<path d="M357.525,116.8c0,5.907-2.018,10.435-6.051,13.586c-4.035,3.151-9.717,4.726-17.047,4.726h-6.645v22.504h-7.277V99.793
			h15.307C350.287,99.793,357.525,105.463,357.525,116.8z M327.783,128.863h5.814c5.748,0,9.914-0.929,12.498-2.789
			c2.584-1.858,3.875-4.845,3.875-8.958c0-3.718-1.199-6.5-3.6-8.345c-2.398-1.845-6.143-2.769-11.232-2.769h-7.355V128.863z"/>
		<path d="M441.276,144.545h-8.425v12.973h-6.961v-12.973h-26.696v-6.289l26.222-38.878h7.436v38.602h8.425V144.545z
			 M425.891,137.98V123.9c0-1.477,0.02-3.025,0.06-4.647c0.039-1.621,0.085-3.203,0.139-4.746c0.052-1.542,0.111-2.986,0.178-4.331
			c0.065-1.345,0.111-2.465,0.139-3.362h-0.356c-0.185,0.528-0.415,1.114-0.692,1.76c-0.276,0.646-0.58,1.292-0.909,1.938
			c-0.33,0.646-0.666,1.272-1.009,1.878c-0.343,0.607-0.659,1.121-0.949,1.542l-16.256,24.047H425.891z"/>
		<path d="M484.686,128.527c0,4.667-0.336,8.846-1.009,12.538c-0.672,3.692-1.754,6.816-3.243,9.374
			c-1.489,2.558-3.408,4.509-5.754,5.854c-2.348,1.345-5.195,2.017-8.543,2.017c-3.112,0-5.821-0.672-8.128-2.017
			c-2.308-1.345-4.219-3.296-5.735-5.854c-1.517-2.557-2.649-5.682-3.401-9.374c-0.751-3.691-1.127-7.871-1.127-12.538
			s0.336-8.846,1.009-12.538c0.672-3.691,1.74-6.809,3.203-9.354c1.464-2.544,3.362-4.489,5.695-5.834
			c2.334-1.345,5.162-2.017,8.484-2.017c3.137,0,5.866,0.666,8.187,1.998s4.245,3.27,5.774,5.813
			c1.529,2.545,2.676,5.663,3.441,9.354C484.303,119.642,484.686,123.834,484.686,128.527z M455.063,128.527
			c0,3.955,0.197,7.41,0.593,10.362c0.396,2.953,1.028,5.412,1.898,7.376s2.011,3.44,3.421,4.43c1.41,0.988,3.131,1.483,5.162,1.483
			c2.029,0,3.757-0.488,5.181-1.463c1.424-0.975,2.591-2.438,3.5-4.39c0.91-1.951,1.568-4.41,1.978-7.376
			c0.409-2.966,0.613-6.44,0.613-10.421c0-3.955-0.204-7.409-0.613-10.362c-0.409-2.953-1.067-5.405-1.978-7.356
			c-0.909-1.951-2.076-3.415-3.5-4.39c-1.424-0.975-3.151-1.463-5.181-1.463c-2.031,0-3.752,0.488-5.162,1.463
			c-1.41,0.976-2.551,2.439-3.421,4.39c-0.87,1.952-1.503,4.404-1.898,7.356C455.26,121.118,455.063,124.572,455.063,128.527z"/>
		<path d="M500.568,157.518l22.268-51.258h-29.821v-6.565h37.178v5.735l-21.95,52.088H500.568z"/>
		<path d="M575.698,124.375c0,2.769-0.139,5.531-0.415,8.286c-0.277,2.755-0.766,5.385-1.464,7.89
			c-0.698,2.505-1.654,4.845-2.867,7.02c-1.213,2.176-2.756,4.054-4.627,5.636c-1.873,1.582-4.113,2.828-6.725,3.738
			c-2.609,0.909-5.669,1.364-9.176,1.364c-0.501,0-1.055-0.014-1.66-0.04c-0.607-0.026-1.214-0.073-1.82-0.138
			c-0.606-0.066-1.199-0.139-1.779-0.218s-1.095-0.185-1.543-0.316v-6.17c0.923,0.343,1.965,0.593,3.125,0.751
			s2.307,0.237,3.441,0.237c3.559,0,6.486-0.619,8.779-1.859c2.295-1.239,4.113-2.92,5.459-5.043c1.344-2.122,2.3-4.594,2.867-7.416
			c0.566-2.821,0.916-5.8,1.048-8.938h-0.515c-0.527,0.949-1.16,1.833-1.898,2.65c-0.738,0.817-1.608,1.529-2.609,2.136
			c-1.003,0.607-2.137,1.082-3.402,1.424c-1.266,0.343-2.676,0.514-4.231,0.514c-2.505,0-4.772-0.389-6.803-1.167
			s-3.757-1.918-5.181-3.421s-2.525-3.342-3.303-5.517c-0.778-2.176-1.167-4.661-1.167-7.456c0-3.006,0.415-5.715,1.246-8.127
			c0.83-2.413,2.003-4.456,3.52-6.131c1.517-1.674,3.362-2.959,5.537-3.856c2.176-0.896,4.608-1.345,7.298-1.345
			c2.662,0,5.141,0.514,7.436,1.542c2.293,1.028,4.284,2.597,5.972,4.707c1.688,2.11,3.019,4.766,3.995,7.969
			C575.21,116.287,575.698,120.05,575.698,124.375z M556.911,104.955c-1.582,0-3.025,0.264-4.33,0.791
			c-1.306,0.528-2.433,1.345-3.382,2.452s-1.681,2.499-2.195,4.172c-0.514,1.675-0.771,3.659-0.771,5.953
			c0,1.846,0.217,3.5,0.652,4.963c0.435,1.464,1.088,2.709,1.957,3.738c0.871,1.028,1.958,1.819,3.264,2.373
			c1.305,0.554,2.828,0.831,4.568,0.831c1.792,0,3.414-0.31,4.864-0.93c1.45-0.619,2.689-1.424,3.718-2.412
			c1.028-0.989,1.825-2.116,2.393-3.382s0.851-2.531,0.851-3.797c0-1.766-0.244-3.526-0.731-5.28
			c-0.488-1.753-1.213-3.335-2.176-4.746c-0.963-1.41-2.169-2.551-3.619-3.421S558.836,104.955,556.911,104.955z"/>
	</g>
</g>
<g id="Dude" display="none">
	<g display="inline">
		<g>
			<path d="M72.467,45.741c5.009,0.061,8.921,3.26,11.252,7.51c2.333,4.256,1.584,9.145-3.487,10.529
				c-5.794,1.582-13.692-2.394-16.64-7.338c-2.837-4.757,6.012-11.687,10.108-12.421c1.902-0.341,1.094-3.231-0.798-2.893
				c-5.83,1.044-13.688,8.352-12.735,14.639c1.152,7.597,13.295,12.348,19.94,11.082c6.426-1.225,9.08-6.481,7.266-12.59
				c-1.916-6.455-8.182-11.437-14.905-11.518C70.532,42.718,70.534,45.718,72.467,45.741L72.467,45.741z"/>
		</g>
	</g>
	<g display="inline">
		<g>
			<path d="M62.839,61.318c-2.363,4.812-4.885,9.526-7.624,14.135c-2.419,4.071-5.509,7.51-8.209,11.365
				c-1.113,1.588,1.49,3.085,2.591,1.514c2.715-3.876,5.729-7.3,8.209-11.364c2.79-4.571,5.265-9.331,7.624-14.136
				C66.279,61.102,63.692,59.581,62.839,61.318L62.839,61.318z"/>
		</g>
	</g>
	<g display="inline">
		<g>
			<path d="M79.021,67.176c-1.059,5.217-4.059,10.147-6.374,14.919c-2.48,5.112-5.608,9.565-8.809,14.223
				c-1.099,1.599,1.502,3.097,2.591,1.514c3.206-4.666,6.266-9.137,8.808-14.222c2.478-4.956,5.566-10.167,6.676-15.636
				C82.297,66.085,79.406,65.281,79.021,67.176L79.021,67.176z"/>
		</g>
	</g>
	<g display="inline">
		<g>
			<path d="M65.866,100.021c3.8-1.151,14.285-5.281,16.3-0.123c1.905,4.876,0.754,11.225-0.493,16.084
				c-0.451,1.757-6.452,15.712-8.116,14.964c-1.749-0.786-3.276,1.799-1.514,2.591c6.226,2.796,11.86-14.177,12.93-18.344
				c1.244-4.848,2.645-14.195-1.085-18.398c-4.293-4.837-13.804-1.186-18.82,0.333C63.222,97.688,64.01,100.583,65.866,100.021
				L65.866,100.021z"/>
		</g>
	</g>
	<g display="inline">
		<g>
			<path d="M62.377,109.037c7.865,4.411,1.884,19.708-1.372,25.614c-0.934,1.695,1.657,3.208,2.591,1.514
				c4.171-7.568,10.181-24.174,0.295-29.719C62.202,105.499,60.69,108.09,62.377,109.037L62.377,109.037z"/>
		</g>
	</g>
	<g display="inline">
		<g>
			<path d="M73.005,130.484c-1.456,1.895-3.317,3.445-4.932,5.197c-1.309,1.419,0.808,3.546,2.121,2.121
				c1.797-1.95,3.78-3.693,5.401-5.803c0.5-0.65,0.1-1.678-0.539-2.053C74.285,129.493,73.503,129.837,73.005,130.484
				L73.005,130.484z"/>
		</g>
	</g>
	<g display="inline">
		<g>
			<path d="M50.877,101.946c-3.39,2.184-6.474,4.76-9.622,7.271c-1.634,1.303-3.377,2.444-4.958,3.81
				c-1.645,1.422-3.475,3.788-5.83,3.881c-1.928,0.076-1.935,3.076,0,3c3.295-0.13,5.644-2.669,7.952-4.759
				c4.22-3.822,9.203-7.541,13.973-10.612C54.012,103.493,52.509,100.895,50.877,101.946L50.877,101.946z"/>
		</g>
	</g>
	<g display="inline">
		<g>
			<path d="M44.902,94.628c-8.123,2.976-15.218,7.753-21.995,13.052c-1.523,1.19,0.616,3.298,2.121,2.121
				c6.346-4.961,13.065-9.494,20.672-12.281C47.5,96.861,46.723,93.961,44.902,94.628L44.902,94.628z"/>
		</g>
	</g>
	<g display="inline">
		<g>
			<path d="M46.188,89.176c-0.747,2.176-1.112,4.501-2.349,6.475c-1.03,1.644,1.566,3.148,2.591,1.514
				c1.38-2.203,1.818-4.766,2.651-7.191C49.71,88.139,46.812,87.357,46.188,89.176L46.188,89.176z"/>
		</g>
	</g>
	<g display="inline">
		<g>
			<path d="M79.634,77.241c4.379,0.362,14.806,7.686,6.888,10.287c-3.485,1.145-6.916,1.06-10.525,0.913
				c-3.25-0.133-6.275,0.491-9.429,1.188c-1.889,0.417-1.087,3.309,0.798,2.893c5.859-1.294,11.55-0.491,17.409-1.376
				c2.978-0.45,7.226-1.744,8.006-5.011c1.45-6.071-8.333-11.494-13.147-11.892C77.705,74.082,77.721,77.083,79.634,77.241
				L79.634,77.241z"/>
		</g>
	</g>
	<g display="inline">
		<g>
			<path d="M76.967,73.908c-2.245-0.001-5.076,0.512-6.187,2.739c-1.172,2.348,1.012,4.077,2.974,4.811
				c1.352,0.505,2.729,0.469,4.134,0.387c0.276-0.016,0.553-0.016,0.829,0c0.057-0.488-0.01-0.646-0.202-0.475
				c-0.414,0.422-1.053,0.694-1.566,0.969c-2.11,1.131-4.659,2.26-7.048,2.622c-1.908,0.289-1.094,3.18,0.798,2.893
				c2.226-0.337,4.445-1.393,6.482-2.303c1.564-0.698,4.523-1.925,4.369-4.094c-0.195-2.75-2.763-2.657-4.908-2.536
				c-0.511,0.029-3.113-0.229-3.176-0.996c-0.074-0.908,3.066-1.018,3.5-1.018C78.902,76.909,78.902,73.909,76.967,73.908
				L76.967,73.908z"/>
		</g>
	</g>
	<g display="inline">
		<g>
			<path d="M59.967,65.575c-3.674-0.055-7.271-0.341-10.899,0.387c-3.189,0.639-5.989,2.562-8.858,3.984
				c-1.733,0.86-0.213,3.447,1.515,2.591c2.698-1.338,5.198-2.916,8.142-3.683c3.244-0.845,6.795-0.329,10.101-0.279
				C61.903,68.604,61.9,65.604,59.967,65.575L59.967,65.575z"/>
		</g>
	</g>
	<g display="inline">
		<g>
			<path d="M58.044,69.779c-5.173,2.369-9.486,6.084-14.334,9c-1.655,0.996-0.148,3.59,1.515,2.591
				c4.847-2.917,9.161-6.631,14.333-9C61.315,71.565,59.789,68.98,58.044,69.779L58.044,69.779z"/>
		</g>
	</g>
</g>
</svg>
