<?xml version="1.0" encoding="utf-8"?>
<!-- Generator: Adobe Illustrator 16.0.0, SVG Export Plug-In . SVG Version: 6.00 Build 0)  -->
<!DOCTYPE svg PUBLIC "-//W3C//DTD SVG 1.1//EN" "http://www.w3.org/Graphics/SVG/1.1/DTD/svg11.dtd">
<svg version="1.1" id="Layer_1" xmlns="http://www.w3.org/2000/svg" xmlns:xlink="http://www.w3.org/1999/xlink" x="0px" y="0px"
	 width="500px" height="142.271px" viewBox="0 0 500 142.271" enable-background="new 0 0 500 142.271" xml:space="preserve">
<g id="O">
</g>
<g id="A">
	<g>
		<path fill="#EEEEEE" d="M113.752,136.885c-6.523-9.317-13.045-18.637-19.569-27.952c-4.514-6.45-9.03-12.902-13.545-19.354
			c1.656-1.287,3.242-2.685,4.749-4.189c9.447-9.447,14.65-22.01,14.65-35.368c0-13.36-5.203-25.921-14.65-35.368
			C75.94,5.204,63.379,0,50.019,0S24.097,5.203,14.65,14.65C5.203,24.097,0,36.658,0,50.019C0,63.38,5.203,75.94,14.65,85.387
			c7.804,7.804,17.734,12.708,28.483,14.18c-0.184,2.094-0.367,4.188-0.55,6.283c-0.91,10.401-1.822,20.808-2.732,31.212
			c-0.151,1.729-0.303,3.46-0.454,5.189c0,0.006-0.002,0.014-0.002,0.02h4.957c0-0.006,0.003-0.014,0.003-0.02
			c0.531-6.08,1.065-12.155,1.597-18.234c0.701-8.009,1.402-16.016,2.104-24.021c0.653,0.025,1.307,0.042,1.964,0.042
			c9.547,0,18.686-2.659,26.573-7.623c7.14,10.199,14.279,20.397,21.418,30.601c4.493,6.419,8.986,12.837,13.479,19.258h6.032
			C116.264,140.476,115.009,138.68,113.752,136.885z M4.957,50.019c0-24.849,20.214-45.063,45.062-45.063
			c24.847,0,45.061,20.215,45.061,45.063c0,14.385-6.776,27.216-17.303,35.472c-1.938-2.77-3.877-5.539-5.816-8.31
			c-5.46-7.8-10.919-15.601-16.38-23.399c-1.094-1.564-1.985-3.127-3.08-4.691l0,0c-0.006-0.039,0.194-0.075,0.194-0.113v-0.002
			c0-0.033-0.275-0.086-0.295-0.117c-0.115-0.202-0.399-0.519-0.568-0.683c-0.48-0.465-1.242-0.902-1.885-0.902h-0.023
			c-0.038,0-0.074,0.19-0.109,0.192c-0.113,0.007-0.117-0.028-0.222,0.169l0.103,0.057v-0.044c0,0.005-0.141-0.014-0.159-0.008
			c-0.01,0-0.07-0.012-0.078-0.007c-0.018,0.006-0.062,0.002-0.08,0.008c-0.019,0.004-0.049,0.006-0.067,0.012
			c-0.045,0.012-0.098,0.022-0.144,0.04c-0.012,0.004-0.027,0.007-0.039,0.011c-0.043,0.018-0.089,0.034-0.133,0.052
			c-0.012,0.006-0.025,0.014-0.038,0.019c-0.016,0.007-0.032,0.014-0.047,0.021c-0.022,0.013-0.044,0.021-0.067,0.031
			c-0.034,0.018-0.067,0.035-0.101,0.055c-0.016,0.011-0.032,0.019-0.047,0.026c-0.744,0.437-1.247,1.336-1.247,2.217
			c0,0.033,0,0.069,0.004,0.104c-0.525,6.021-1.055,12.035-1.581,18.055c-0.769,8.78-1.538,17.56-2.306,26.34
			C21.766,91.477,4.957,72.675,4.957,50.019z M48.488,95.051c0.251-2.866,0.503-5.735,0.754-8.604
			c0.858-9.808,1.719-19.615,2.578-29.422c1.467,2.096,2.933,4.188,4.4,6.285c5.835,8.339,11.672,16.676,17.507,25.013
			c-6.892,4.281-15.016,6.758-23.708,6.758C49.506,95.079,48.996,95.067,48.488,95.051z"/>
	</g>
</g>
<g id="Science_1_">
	<polygon id="Science" fill="#34CD34" points="217.202,7.271 131.457,7.271 106.546,93.271 192.291,93.271 	"/>
	<g>
		<path d="M175.822,33.584c0,0-9.577-1.108-13.602-1.108c-6.801,0-10.479,2.221-10.479,7.634c0,6.313,3.331,7.354,11.797,9.229
			c9.577,2.151,13.81,4.513,13.81,13.115c0,10.41-5.898,14.574-15.545,14.574c-5.274,0-14.781-1.458-14.781-1.458l0.555-4.857
			c0,0,9.229,1.182,14.157,1.182c6.801,0,10.202-2.567,10.202-9.229c0-5.413-2.846-6.938-10.688-8.467
			c-9.924-2.151-14.851-4.511-14.851-13.949c0-9.021,6.037-12.907,15.822-12.907c5.344,0,14.087,1.39,14.087,1.39L175.822,33.584z"
			/>
	</g>
</g>
<g id="Technology_1_">
	<polygon id="Technology" fill="#729DD9" points="311.316,7.271 225.573,7.271 200.662,93.271 286.407,93.271 	"/>
	<g>
		<path d="M238.64,28.103h34.699v5.135h-14.644v43.165h-5.273V33.237H238.64V28.103z"/>
	</g>
</g>
<g id="Engineering_1_">
	<polygon id="Engineering" fill="#F75111" points="405.659,8.271 319.915,8.271 295.003,93.271 380.748,93.271 	"/>
	<g>
		<path d="M337.005,28.103h29.147v5.063h-23.873v16.311h19.709v4.996h-19.709v16.861h23.873v5.066h-29.146L337.005,28.103
			L337.005,28.103z"/>
	</g>
</g>
<g id="Math_1_">
	<polygon id="Math" fill="#F1B216" points="500,7.271 414.255,7.271 389.346,93.271 475.089,93.271 	"/>
	<g>
		<path d="M423.748,28.103h8.369L444.67,68.7l12.616-40.597h8.307v48.3h-4.809V34.348h-0.875l-12.616,40.317h-5.309L429.43,34.348
			h-0.875v42.055h-4.809L423.748,28.103L423.748,28.103z"/>
	</g>
</g>
<g id="Below_Text" display="none">
	<g display="inline">
		<path d="M571.25-86.953c0,0-10.081-1.224-14.257-1.224c-6.48,0-9.793,2.16-9.793,6.984c0,5.326,2.952,6.479,11.448,8.566
			c10.152,2.664,14.186,5.329,14.186,14.113c0,10.585-6.48,15.121-16.563,15.121c-5.398,0-15.191-1.656-15.191-1.656l0.72-6.336
			c0,0,9.289,1.224,14.401,1.224c6.479,0,9.647-2.229,9.647-8.137c0-4.752-2.521-6.265-10.297-8.063
			c-10.585-2.448-15.41-5.4-15.41-14.689c0-9.433,6.48-13.896,16.852-13.896c5.544,0,14.833,1.653,14.833,1.653L571.25-86.953z"/>
		<path d="M616.61-45.046c0,0-8.208,1.729-13.897,1.729c-15.049,0-18.434-8.931-18.434-25.706c0-17.498,3.96-25.853,18.434-25.853
			c6.409,0,13.897,1.801,13.897,1.801l-0.218,6.267c0,0-8.137-1.227-12.815-1.227c-9.938,0-12.025,5.475-12.025,19.012
			c0,13.177,1.8,18.863,12.169,18.863c4.248,0,12.673-1.224,12.673-1.224L616.61-45.046z"/>
		<path d="M630.431-94.082h6.984v49.975h-6.984V-94.082z"/>
		<path d="M654.406-94.082h30.747v6.697h-23.834v14.977h19.514v6.555h-19.514v15.05h23.834v6.696h-30.747V-94.082z"/>
		<path d="M700.053-94.082h11.811l17.855,41.478h1.44v-41.478h6.983v49.975h-11.521l-18.146-41.478h-1.438v41.478h-6.984V-94.082z"
			/>
		<path d="M785.087-45.046c0,0-8.208,1.729-13.896,1.729c-15.052,0-18.436-8.931-18.436-25.706c0-17.498,3.96-25.853,18.436-25.853
			c6.406,0,13.896,1.801,13.896,1.801l-0.216,6.267c0,0-8.137-1.227-12.817-1.227c-9.937,0-12.022,5.475-12.022,19.012
			c0,13.177,1.8,18.863,12.169,18.863c4.248,0,12.673-1.224,12.673-1.224L785.087-45.046z"/>
		<path d="M799.125-94.082h30.747v6.697h-23.835v14.977h19.514v6.555h-19.514v15.05h23.835v6.696h-30.747V-94.082z"/>
		<path d="M860.539-94.082h36.002v6.697H882.14v43.275h-7.057v-43.275h-14.545L860.539-94.082L860.539-94.082z"/>
		<path d="M907.338-94.082h30.748v6.697H914.25v14.977h19.514v6.555H914.25v15.05h23.836v6.696h-30.748V-94.082z"/>
		<path d="M982.725-45.046c0,0-8.209,1.729-13.896,1.729c-15.051,0-18.436-8.931-18.436-25.706c0-17.498,3.959-25.853,18.436-25.853
			c6.408,0,13.896,1.801,13.896,1.801l-0.217,6.267c0,0-8.137-1.227-12.814-1.227c-9.938,0-12.025,5.475-12.025,19.012
			c0,13.177,1.801,18.863,12.17,18.863c4.248,0,12.672-1.224,12.672-1.224L982.725-45.046z"/>
		<path d="M1026.717-66.071h-22.971v21.962h-6.984v-49.975h6.984v21.314h22.971v-21.314h7.059v49.975h-7.059V-66.071z"/>
		<path d="M1050.979-94.082h11.811l17.855,41.478h1.439v-41.478h6.984v49.975h-11.521l-18.146-41.478h-1.439v41.478h-6.983V-94.082
			L1050.979-94.082z"/>
		<path d="M1103.752-68.808c0-16.563,4.465-26.066,19.875-26.066c15.408,0,19.945,9.435,19.945,26.066
			c0,16.993-4.465,25.49-19.945,25.49C1108.217-43.317,1103.752-52.103,1103.752-68.808z M1136.299-68.808
			c0-12.385-2.375-19.298-12.672-19.298s-12.674,6.841-12.674,19.298c0,12.529,2.305,18.722,12.674,18.722
			C1134.066-50.086,1136.299-55.99,1136.299-68.808z"/>
		<path d="M1158.256-44.109v-49.975h6.984v43.276h20.594v6.696L1158.256-44.109L1158.256-44.109z"/>
		<path d="M1197.279-68.808c0-16.563,4.465-26.066,19.873-26.066c15.41,0,19.943,9.435,19.943,26.066
			c0,16.993-4.463,25.49-19.943,25.49C1201.744-43.317,1197.279-52.103,1197.279-68.808z M1229.826-68.808
			c0-12.385-2.377-19.298-12.674-19.298s-12.672,6.841-12.672,19.298c0,12.529,2.303,18.722,12.672,18.722
			C1227.594-50.086,1229.826-55.99,1229.826-68.808z"/>
		<path d="M1271.297-69.888h13.896v24.842c0,0-10.227,1.729-16.348,1.729c-15.266,0-19.586-9.36-19.586-25.778
			c0-16.993,4.537-25.778,19.371-25.778c7.563,0,16.563,2.019,16.563,2.019l-0.287,6.12c0,0-8.785-1.298-15.338-1.298
			c-10.516,0-13.105,5.475-13.105,18.938c0,13.249,2.232,19.01,12.889,19.01c3.816,0,8.715-0.792,8.932-0.792v-12.745h-6.984
			L1271.297-69.888L1271.297-69.888z"/>
		<path d="M1318.24-44.109h-6.986v-21.388l-15.553-28.587h7.777l11.23,20.738l11.09-20.738h7.85l-15.408,28.587V-44.109
			L1318.24-44.109z"/>
		<path d="M1368.205-94.082h30.746v6.697h-23.834v14.977h19.514v6.555h-19.514v15.05h23.834v6.696h-30.746V-94.082z"/>
		<path d="M1413.852-94.082h11.811l17.858,41.478h1.438v-41.478h6.984v49.975h-11.521l-18.145-41.478h-1.441v41.478h-6.984V-94.082
			L1413.852-94.082z"/>
		<path d="M1488.66-69.888h13.896v24.842c0,0-10.227,1.729-16.346,1.729c-15.266,0-19.586-9.36-19.586-25.778
			c0-16.993,4.537-25.778,19.369-25.778c7.561,0,16.563,2.019,16.563,2.019l-0.287,6.12c0,0-8.785-1.298-15.34-1.298
			c-10.512,0-13.104,5.475-13.104,18.938c0,13.249,2.229,19.01,12.889,19.01c3.816,0,8.713-0.792,8.93-0.792v-12.745h-6.984V-69.888
			z"/>
		<path d="M1517.674-94.082h6.984v49.975h-6.984V-94.082z"/>
		<path d="M1541.648-94.082h11.809l17.859,41.478h1.438v-41.478h6.984v49.975h-11.521l-18.145-41.478h-1.441v41.478h-6.984
			L1541.648-94.082L1541.648-94.082z"/>
		<path d="M1596.943-94.082h30.748v6.697h-23.836v14.977h19.514v6.555h-19.514v15.05h23.836v6.696h-30.748V-94.082z"/>
		<path d="M1642.592-94.082h30.748v6.697h-23.836v14.977h19.514v6.555h-19.514v15.05h23.836v6.696h-30.748V-94.082z"/>
		<path d="M1707.826-62.111h-12.604v18.002h-6.982v-49.975h18.646c11.02,0,16.348,4.608,16.348,15.626
			c0,7.633-2.736,12.169-8.496,14.475l8.785,19.874h-7.705L1707.826-62.111z M1706.889-87.457h-11.664v18.724h11.736
			c6.771,0,9.072-3.816,9.072-9.577C1716.033-84.505,1713.082-87.457,1706.889-87.457z"/>
		<path d="M1737.92-94.082h6.984v49.975h-6.984V-94.082z"/>
		<path d="M1761.895-94.082h11.811l17.855,41.478H1793v-41.478h6.984v49.975h-11.521l-18.146-41.478h-1.439v41.478h-6.983V-94.082
			L1761.895-94.082z"/>
		<path d="M1836.703-69.888h13.896v24.842c0,0-10.225,1.729-16.346,1.729c-15.266,0-19.586-9.36-19.586-25.778
			c0-16.993,4.537-25.778,19.371-25.778c7.561,0,16.561,2.019,16.561,2.019l-0.286,6.12c0,0-8.784-1.298-15.339-1.298
			c-10.514,0-13.104,5.475-13.104,18.938c0,13.249,2.231,19.01,12.889,19.01c3.816,0,8.713-0.792,8.932-0.792v-12.745h-6.984
			L1836.703-69.888L1836.703-69.888z"/>
		<path d="M1888.107-94.082h11.734l12.891,40.036l12.961-40.036h11.594v49.975h-6.984v-41.478h-1.08l-12.814,39.604h-7.418
			l-12.816-39.604h-1.08v41.478h-6.982v-49.975H1888.107z"/>
		<path d="M1963.205-94.082h14.328l12.674,49.9h-7.057l-3.24-11.161h-19.441l-3.098,11.233h-6.984L1963.205-94.082z M1961.98-62.039
			h16.488l-6.41-25.563h-3.525L1961.98-62.039z"/>
		<path d="M1996.898-94.082h36.004v6.697H2018.5v43.275h-7.057v-43.275h-14.545V-94.082z"/>
		<path d="M2073.652-66.071h-22.969v21.962h-6.984v-49.975h6.984v21.314h22.969v-21.314h7.057v49.975h-7.057V-66.071z"/>
		<path d="M2097.914-94.082h30.748v6.697h-23.836v14.977h19.514v6.555h-19.514v15.05h23.836v6.696h-30.748V-94.082z"/>
		<path d="M2143.563-94.082h11.736l12.889,40.036l12.961-40.036h11.596v49.975h-6.984v-41.478h-1.08l-12.814,39.604h-7.418
			l-12.816-39.604h-1.08v41.478h-6.982v-49.975H2143.563z"/>
		<path d="M2218.658-94.082h14.33l12.672,49.9h-7.057l-3.24-11.161h-19.441l-3.096,11.233h-6.982L2218.658-94.082z M2217.434-62.039
			h16.49l-6.408-25.563h-3.527L2217.434-62.039z"/>
		<path d="M2252.354-94.082h36.002v6.697h-14.398v43.275h-7.057v-43.275h-14.545L2252.354-94.082L2252.354-94.082z"/>
		<path d="M2298.938-94.082h6.984v49.975h-6.984V-94.082z"/>
		<path d="M2352.65-45.046c0,0-8.207,1.729-13.896,1.729c-15.049,0-18.434-8.931-18.434-25.706c0-17.498,3.961-25.853,18.434-25.853
			c6.408,0,13.896,1.801,13.896,1.801l-0.217,6.267c0,0-8.137-1.227-12.816-1.227c-9.938,0-12.023,5.475-12.023,19.012
			c0,13.177,1.799,18.863,12.168,18.863c4.248,0,12.674-1.224,12.674-1.224L2352.65-45.046z"/>
		<path d="M2394.627-86.953c0,0-10.082-1.224-14.258-1.224c-6.48,0-9.793,2.16-9.793,6.984c0,5.326,2.953,6.479,11.449,8.566
			c10.15,2.664,14.186,5.329,14.186,14.113c0,10.585-6.48,15.121-16.563,15.121c-5.4,0-15.193-1.656-15.193-1.656l0.721-6.336
			c0,0,9.289,1.224,14.4,1.224c6.48,0,9.648-2.229,9.648-8.137c0-4.752-2.521-6.265-10.297-8.063
			c-10.586-2.448-15.41-5.4-15.41-14.689c0-9.433,6.479-13.896,16.852-13.896c5.545,0,14.834,1.653,14.834,1.653L2394.627-86.953z"
			/>
	</g>
</g>
<g id="Guides">
</g>
</svg>
