<?xml version="1.0" encoding="utf-8"?>
<!-- Generator: Adobe Illustrator 16.0.0, SVG Export Plug-In . SVG Version: 6.00 Build 0)  -->
<!DOCTYPE svg PUBLIC "-//W3C//DTD SVG 1.1//EN" "http://www.w3.org/Graphics/SVG/1.1/DTD/svg11.dtd">
<svg version="1.1" xmlns="http://www.w3.org/2000/svg" xmlns:xlink="http://www.w3.org/1999/xlink" x="0px" y="0px"
	 width="608.083px" height="180.04px" viewBox="0 0 608.083 180.04" enable-background="new 0 0 608.083 180.04"
	 xml:space="preserve">
<g id="Person">
	<path d="M99.56,54.78c0.76,1.58,1.19,3.35,1.19,5.22v2c0,5.46-3.65,10.06-8.64,11.51l0.01,0.01l-1.32,3.2l-0.54,1.31l8.99,5.64
		l6.5-11.67l6,3.33l-9.5,16l-14.93-6.18l-4.02,9.73l13.85,9.95l-10.4,20.46l-4.27,8.21l-10.37-4.25l14.81-21.33l-6.84-5.13
		L69.1,96.83l-10.52,15.2l-12.74-9.74l-0.01-0.01l-2.08-1.6l5.83-9.35l9.7,8.43l0.47,0.41l0.04-0.12l0.97-2.98L62.08,93l8.85-15.96
		l-14.5-7.36l4.02-9.37l1.63-3.79l4.79,2.3l-1.28,4.48l-1.17,4.06l9.31,4.83L76.15,68c-0.89-2-1.4-3.96-1.4-6v-2
		c0-6.63,5.37-12,12-12h2c4.13,0,7.75,2.08,9.91,5.24"/>
	<path d="M77.29,122"/>
</g>
<g id="Recycle">
	<g>
		<g>
			<g>
				<g>
					<path fill="#87D37C" d="M181.48,86.55l-17.86-30.84L126.1,77.02L149.27,117h12.98c4.11,0,8.24-0.89,11.19-2.47
						c6.28-3.52,10.8-10.94,10.8-18.01C184.24,92.98,183.25,89.7,181.48,86.55z M162.64,122h-41.89v-15.42l-21.99,36.74l21.99,36.72
						V165h22.83c4.13,0,7.66-2,9.62-5.34l24.36-42.39C173.44,120.4,168.52,122,162.64,122z M146.53,25.67L134.55,5.18
						C132.57,1.84,129.24,0,124.92,0H76.6c4.72,2,8.65,5.57,11.59,10.68l21.02,36.56l-10.54,5.99l-0.01,0.01
						c0.01,0,0.01,0.01,0.01,0.01c0.34,0.48,0.64,1,0.89,1.53l39.1,0.55L159.49,18L146.53,25.67z M82.48,133.5l-10.37-4.25
						l5.18-7.25H40.06l-6.28,10.96c-1.96,3.33-3.34,8.55-3.34,11.7c0,11.19,9.23,20.34,20.42,20.34h35.89v-39.71L82.48,133.5z
						 M84.26,13.29C79.75,5.63,73.46,1.9,65.4,1.9c-7.46,0-13.55,3.53-17.28,10.02L30.25,42.75l30.2,17.56l5.14,2.99l2.17,1.26
						l23.18-40.08L84.26,13.29z M60.76,97.07L42.82,64.75L0,65.54L13.16,73L1.37,93.62C0.58,95,0,97.15,0,98.93
						c0,1.77,0.58,3.73,1.37,5.1l24.55,42.23c-0.19-1.37-0.19-2.36-0.19-3.13c0-3.35,1.56-8.66,3.53-12.18l16.57-28.67l0.01-0.01
						l4.44-7.67l9,5.16l0.51,0.29l3.85,2.21L60.76,97.07z"/>
				</g>
			</g>
		</g>
	</g>
</g>
<g id="Text">
	<g>
		<path d="M236.866,57.407l7.409,7.408L241.1,67.99l-7.408-7.32c-3.528,2.91-8.379,4.674-13.847,4.674
			c-6.262,0-11.554-2.293-15.258-5.998c-5.821-5.821-6.262-10.671-6.262-25.929c0-15.258,0.441-20.109,6.262-25.93
			c3.704-3.704,8.996-5.998,15.258-5.998c6.262,0,11.554,2.293,15.258,5.998c5.821,5.821,6.262,10.671,6.262,25.93
			C241.364,47,241.012,52.292,236.866,57.407z M231.751,10.575c-3.263-3.264-7.32-4.851-11.906-4.851
			c-4.586,0-8.644,1.587-11.907,4.851c-4.498,4.498-4.851,9.613-4.851,22.843c0,13.229,0.353,18.345,4.851,22.842
			c3.263,3.263,7.32,4.851,11.907,4.851c3.969,0,7.585-1.146,10.671-3.704l-8.819-8.82l3.175-3.175l8.644,8.731
			c2.822-4.145,3.086-9.525,3.086-20.726C236.602,20.188,236.249,15.073,231.751,10.575z"/>
		<path d="M278.845,65.345c-12.612,0-21.52-8.644-21.52-20.902V2.02h4.763v41.805c0,10.407,6.615,17.287,16.757,17.287
			s16.757-6.879,16.757-17.287V2.02h4.763v42.422C300.365,56.701,291.457,65.345,278.845,65.345z"/>
		<path d="M355.838,64.815l-5.469-15.258h-29.281l-5.468,15.258h-5.116L333.612,2.02h4.233l23.107,62.795H355.838z M322.588,45.324
			h26.282L335.729,8.37L322.588,45.324z"/>
		<path d="M412.986,64.815l-36.248-54.593v54.593h-4.763V2.02h4.763l36.248,54.417V2.02h4.763v62.795H412.986z"/>
		<path d="M453.555,6.253v58.562h-4.762V6.253h-18.697V2.02h42.245v4.233H453.555z"/>
		<path d="M505.324,65.345c-12.612,0-21.521-8.644-21.521-20.902V2.02h4.763v41.805c0,10.407,6.615,17.287,16.758,17.287
			c10.142,0,16.757-6.879,16.757-17.287V2.02h4.763v42.422C526.844,56.701,517.936,65.345,505.324,65.345z"/>
		<path d="M593.34,64.815V13.044l-19.05,42.952h-4.763l-19.403-42.952v51.771h-4.763V2.02h4.763l21.873,48.419L593.34,2.02h4.763
			v62.795H593.34z"/>
		<path d="M200.794,170.648v-62.795h4.762v58.562h33.338v4.233H200.794z"/>
		<path d="M251.241,170.648v-62.795h38.101v4.233h-33.338v24.783h28.399v4.233h-28.399v25.312h33.338v4.233H251.241z"/>
		<path d="M340.934,170.648l-5.468-15.258h-29.281l-5.468,15.258h-5.116l23.107-62.795h4.233l23.107,62.795H340.934z
			 M307.684,151.157h26.283l-13.142-36.954L307.684,151.157z"/>
		<path d="M380.091,144.013h-18.257v26.635h-4.762v-62.795h23.019c10.849,0,18.962,6.615,18.962,18.08
			S390.939,144.013,380.091,144.013z M379.562,112.086h-17.728v27.693h17.728c8.731,0,14.729-4.41,14.729-13.847
			S388.293,112.086,379.562,112.086z"/>
		<path d="M458.67,160.329v10.319h-4.498v-10.319h-24.871v-3.969l23.107-48.508h4.763l-23.107,48.508h20.108v-19.933h4.498v19.933
			h8.379v3.969H458.67z"/>
		<path d="M493.506,171.177c-9.701,0-16.492-6.968-16.492-16.757v-30.339c0-9.79,6.791-16.757,16.492-16.757
			c9.702,0,16.493,6.968,16.493,16.757v30.339C509.999,164.209,503.208,171.177,493.506,171.177z M505.501,124.521
			c0-7.408-4.146-13.229-11.995-13.229s-11.994,5.821-11.994,13.229v29.458c0,7.408,4.145,13.229,11.994,13.229
			s11.995-5.821,11.995-13.229V124.521z"/>
		<path d="M534.427,170.648h-4.587l22.226-58.827h-23.813v9.878h-4.498v-13.847h32.896v3.969L534.427,170.648z"/>
		<path d="M597.044,138.104l-16.14,32.544h-4.498l14.464-29.017c-2.116,0.97-4.586,1.5-7.408,1.5
			c-10.319,0-16.14-7.761-16.14-17.551c0-10.055,5.997-18.257,16.58-18.257c10.584,0,16.669,7.409,16.669,17.639
			C600.571,129.108,599.602,132.812,597.044,138.104z M583.902,111.292c-7.408,0-12.082,5.468-12.082,13.935
			c0,7.497,4.057,13.935,12.082,13.935c7.409,0,12.172-5.468,12.172-13.935S591.312,111.292,583.902,111.292z"/>
	</g>
</g>
<g id="Dude" display="none">
	<g display="inline">
		<g>
			<path d="M79.417,50.333c5.009,0.061,8.921,3.26,11.252,7.51c2.333,4.256,1.584,9.145-3.487,10.529
				c-5.794,1.582-13.692-2.394-16.64-7.338c-2.837-4.757,6.012-11.687,10.108-12.421c1.902-0.341,1.094-3.231-0.798-2.893
				c-5.83,1.044-13.688,8.352-12.735,14.639c1.152,7.597,13.295,12.348,19.94,11.082c6.426-1.225,9.08-6.481,7.266-12.59
				c-1.916-6.455-8.182-11.437-14.905-11.518C77.481,47.31,77.483,50.31,79.417,50.333L79.417,50.333z"/>
		</g>
	</g>
	<g display="inline">
		<g>
			<path d="M69.788,65.91c-2.363,4.812-4.885,9.526-7.624,14.135c-2.419,4.071-5.509,7.51-8.209,11.365
				c-1.113,1.588,1.49,3.085,2.591,1.514c2.715-3.876,5.729-7.3,8.209-11.364c2.79-4.571,5.265-9.331,7.624-14.136
				C73.228,65.694,70.641,64.173,69.788,65.91L69.788,65.91z"/>
		</g>
	</g>
	<g display="inline">
		<g>
			<path d="M85.97,71.768c-1.059,5.217-4.059,10.147-6.374,14.919c-2.48,5.112-5.608,9.565-8.809,14.223
				c-1.099,1.599,1.502,3.097,2.591,1.514c3.206-4.666,6.266-9.137,8.808-14.222c2.478-4.956,5.566-10.167,6.676-15.636
				C89.246,70.677,86.355,69.873,85.97,71.768L85.97,71.768z"/>
		</g>
	</g>
	<g display="inline">
		<g>
			<path d="M72.815,104.613c3.8-1.151,14.285-5.281,16.3-0.123c1.905,4.876,0.754,11.225-0.493,16.084
				c-0.451,1.757-6.452,15.712-8.116,14.964c-1.749-0.786-3.276,1.799-1.514,2.591c6.226,2.796,11.86-14.177,12.93-18.344
				c1.244-4.848,2.645-14.195-1.085-18.398c-4.293-4.837-13.804-1.186-18.82,0.333C70.171,102.28,70.959,105.176,72.815,104.613
				L72.815,104.613z"/>
		</g>
	</g>
	<g display="inline">
		<g>
			<path d="M69.326,113.629c7.865,4.411,1.884,19.708-1.372,25.614c-0.934,1.695,1.657,3.208,2.591,1.514
				c4.171-7.568,10.181-24.174,0.295-29.719C69.151,110.091,67.639,112.683,69.326,113.629L69.326,113.629z"/>
		</g>
	</g>
	<g display="inline">
		<g>
			<path d="M79.955,135.076c-1.456,1.895-3.317,3.445-4.932,5.197c-1.309,1.419,0.808,3.546,2.121,2.121
				c1.797-1.95,3.78-3.693,5.401-5.803c0.5-0.65,0.1-1.678-0.539-2.053C81.234,134.085,80.452,134.43,79.955,135.076L79.955,135.076
				z"/>
		</g>
	</g>
	<g display="inline">
		<g>
			<path d="M57.826,106.538c-3.39,2.184-6.474,4.76-9.622,7.271c-1.634,1.303-3.377,2.444-4.958,3.81
				c-1.645,1.422-3.475,3.788-5.83,3.881c-1.928,0.076-1.935,3.076,0,3c3.295-0.13,5.644-2.669,7.952-4.759
				c4.22-3.822,9.203-7.541,13.973-10.612C60.961,108.085,59.458,105.487,57.826,106.538L57.826,106.538z"/>
		</g>
	</g>
	<g display="inline">
		<g>
			<path d="M51.851,99.221c-8.123,2.976-15.218,7.753-21.995,13.052c-1.523,1.19,0.616,3.298,2.121,2.121
				c6.346-4.961,13.065-9.494,20.672-12.281C54.45,101.454,53.672,98.554,51.851,99.221L51.851,99.221z"/>
		</g>
	</g>
	<g display="inline">
		<g>
			<path d="M53.137,93.768c-0.747,2.176-1.112,4.501-2.349,6.475c-1.03,1.644,1.566,3.148,2.591,1.514
				c1.38-2.203,1.818-4.766,2.651-7.191C56.66,92.731,53.761,91.95,53.137,93.768L53.137,93.768z"/>
		</g>
	</g>
	<g display="inline">
		<g>
			<path d="M86.583,81.833c4.379,0.362,14.806,7.686,6.888,10.287c-3.485,1.145-6.916,1.06-10.525,0.913
				c-3.25-0.133-6.275,0.491-9.429,1.188c-1.889,0.417-1.087,3.309,0.798,2.893c5.859-1.294,11.55-0.491,17.409-1.376
				c2.978-0.45,7.226-1.744,8.006-5.011c1.45-6.071-8.333-11.494-13.147-11.892C84.654,78.674,84.67,81.675,86.583,81.833
				L86.583,81.833z"/>
		</g>
	</g>
	<g display="inline">
		<g>
			<path d="M83.917,78.5c-2.245-0.001-5.076,0.512-6.187,2.739c-1.172,2.348,1.012,4.077,2.974,4.811
				c1.352,0.505,2.729,0.469,4.134,0.387c0.276-0.016,0.553-0.016,0.829,0c0.057-0.488-0.01-0.646-0.202-0.475
				c-0.414,0.422-1.053,0.694-1.566,0.969c-2.11,1.131-4.659,2.26-7.048,2.622c-1.908,0.289-1.094,3.18,0.798,2.893
				c2.226-0.337,4.445-1.393,6.482-2.303c1.564-0.698,4.523-1.925,4.369-4.094c-0.195-2.75-2.763-2.657-4.908-2.536
				c-0.511,0.029-3.113-0.229-3.176-0.996c-0.074-0.908,3.066-1.018,3.5-1.018C85.851,81.501,85.851,78.501,83.917,78.5L83.917,78.5
				z"/>
		</g>
	</g>
	<g display="inline">
		<g>
			<path d="M66.917,70.167c-3.674-0.055-7.271-0.341-10.899,0.387c-3.189,0.639-5.989,2.562-8.858,3.984
				c-1.733,0.86-0.213,3.447,1.515,2.591c2.698-1.338,5.198-2.916,8.142-3.683c3.244-0.845,6.795-0.329,10.101-0.279
				C68.852,73.196,68.849,70.196,66.917,70.167L66.917,70.167z"/>
		</g>
	</g>
	<g display="inline">
		<g>
			<path d="M64.993,74.372c-5.173,2.369-9.486,6.084-14.334,9c-1.655,0.996-0.148,3.59,1.515,2.591
				c4.847-2.917,9.161-6.631,14.333-9C68.264,76.158,66.738,73.572,64.993,74.372L64.993,74.372z"/>
		</g>
	</g>
</g>
</svg>
