<?xml version="1.0" encoding="utf-8"?>
<!-- Generator: Adobe Illustrator 16.0.0, SVG Export Plug-In . SVG Version: 6.00 Build 0)  -->
<!DOCTYPE svg PUBLIC "-//W3C//DTD SVG 1.1//EN" "http://www.w3.org/Graphics/SVG/1.1/DTD/svg11.dtd">
<svg version="1.1" id="Layer_1" xmlns="http://www.w3.org/2000/svg" xmlns:xlink="http://www.w3.org/1999/xlink" x="0px" y="0px"
	 width="205.743px" height="58.298px" viewBox="0 0 205.743 58.298" enable-background="new 0 0 205.743 58.298"
	 xml:space="preserve">
<g>
	<path fill="#333333" d="M23.602,18.471c0,1.175-0.044,2.372-0.132,3.591c-0.087,1.219-0.25,2.412-0.487,3.579
		c-0.236,1.167-0.561,2.289-0.974,3.368c-0.412,1.078-0.947,2.074-1.604,2.984c-0.658,0.912-1.447,1.729-2.368,2.448
		c-0.921,0.72-2.013,1.29-3.276,1.71c-1.246,0.438-2.522,0.719-3.829,0.842c-1.307,0.125-2.618,0.185-3.934,0.185H0V0h8.367
		c2.982,0,5.455,0.46,7.42,1.381c1.964,0.92,3.525,2.201,4.683,3.841s1.969,3.587,2.433,5.842
		C23.369,13.318,23.602,15.788,23.602,18.471z M19.024,18.524c0-0.86-0.022-1.764-0.066-2.71c-0.044-0.947-0.141-1.89-0.29-2.828
		c-0.149-0.939-0.364-1.855-0.644-2.75c-0.281-0.894-0.654-1.723-1.119-2.486c-0.465-0.763-1.048-1.438-1.75-2.026
		s-1.536-1.057-2.5-1.408c-0.947-0.351-1.938-0.575-2.972-0.671C8.648,3.548,7.613,3.5,6.578,3.5H4.209V33.68h2.842
		c1.052,0,2.122-0.063,3.21-0.186c1.087-0.123,2.122-0.403,3.105-0.842c1.298-0.597,2.324-1.435,3.078-2.515
		c0.754-1.078,1.32-2.274,1.697-3.59s0.618-2.674,0.723-4.079C18.971,21.067,19.024,19.752,19.024,18.524z"/>
	<path fill="#333333" d="M30.416,4.842V0h4.842v4.842H30.416z M30.995,37.178V11.525h3.657v25.653H30.995z"/>
	<path fill="#333333" d="M58.346,45.546c-1.781,1.893-4.513,2.84-8.196,2.84c-1.264,0-2.439-0.082-3.526-0.249
		c-1.088-0.166-2.237-0.373-3.447-0.618V43.81c1.035,0.489,2.078,0.863,3.13,1.116c1.053,0.256,2.149,0.382,3.289,0.382
		c1.474,0,2.71-0.183,3.71-0.553c1-0.369,1.798-0.913,2.395-1.63c0.596-0.722,1.021-1.61,1.276-2.672
		c0.254-1.061,0.382-2.277,0.382-3.646v-4.523h-0.106c-0.491,1.525-1.346,2.723-2.565,3.59c-1.219,0.869-2.626,1.304-4.223,1.304
		c-1.175,0-2.206-0.179-3.091-0.539c-0.886-0.361-1.649-0.847-2.289-1.46c-0.642-0.614-1.176-1.338-1.605-2.172
		c-0.431-0.834-0.768-1.715-1.013-2.645c-0.246-0.928-0.42-1.893-0.526-2.893s-0.158-1.982-0.158-2.948
		c0-0.929,0.056-1.907,0.17-2.935c0.114-1.025,0.298-2.043,0.553-3.051c0.255-1.008,0.601-1.969,1.039-2.881
		c0.438-0.912,0.982-1.719,1.632-2.421c0.648-0.701,1.416-1.258,2.302-1.67c0.886-0.413,1.917-0.619,3.091-0.619
		c0.754,0,1.491,0.11,2.21,0.329c0.72,0.22,1.373,0.531,1.96,0.934c0.588,0.404,1.102,0.904,1.54,1.5
		c0.438,0.597,0.763,1.271,0.973,2.026h0.106v-4.209h3.657v25.706C61.017,40.878,60.126,43.652,58.346,45.546z M57.36,23.878
		c0-0.893-0.102-1.904-0.303-3.035c-0.202-1.13-0.535-2.203-1-3.219c-0.465-1.016-1.083-1.87-1.854-2.562s-1.728-1.039-2.868-1.039
		c-0.79,0-1.47,0.185-2.04,0.552c-0.57,0.368-1.052,0.85-1.447,1.445c-0.395,0.596-0.715,1.274-0.96,2.036
		c-0.246,0.762-0.434,1.533-0.565,2.313c-0.132,0.779-0.219,1.537-0.263,2.272c-0.044,0.736-0.066,1.384-0.066,1.944
		c0,0.561,0.022,1.187,0.066,1.879c0.044,0.691,0.131,1.387,0.263,2.086c0.131,0.702,0.319,1.385,0.565,2.051
		c0.246,0.667,0.562,1.257,0.947,1.775c0.386,0.517,0.855,0.932,1.407,1.248c0.553,0.315,1.214,0.472,1.987,0.472
		c0.772,0,1.465-0.166,2.079-0.499c0.614-0.333,1.145-0.78,1.592-1.339c0.447-0.562,0.828-1.195,1.144-1.906
		c0.316-0.71,0.57-1.444,0.764-2.207c0.192-0.762,0.333-1.51,0.421-2.247C57.316,25.167,57.36,24.492,57.36,23.878z"/>
	<path fill="#333333" d="M69.331,4.842V0h4.841v4.842H69.331z M69.91,37.178V11.525h3.658v25.653H69.91z"/>
	<path fill="#333333" d="M92.118,37.178h-3.71l-9.709-25.653h3.947l7.551,20.261h0.105l6.578-20.261h3.92L92.118,37.178z"/>
	<path fill="#333333" d="M118.35,37.178v-3.394h-0.104c-0.353,0.665-0.826,1.25-1.423,1.749s-1.249,0.916-1.961,1.249
		c-0.711,0.336-1.456,0.583-2.235,0.751c-0.779,0.165-1.53,0.249-2.249,0.249c-1.105,0-2.088-0.17-2.949-0.513
		c-0.857-0.343-1.577-0.824-2.156-1.448c-0.579-0.621-1.021-1.376-1.329-2.261c-0.306-0.887-0.46-1.873-0.46-2.961
		c0-0.982,0.193-1.859,0.579-2.631c0.386-0.772,0.898-1.451,1.54-2.039c0.639-0.588,1.382-1.092,2.222-1.513
		c0.844-0.422,1.715-0.764,2.617-1.027c0.905-0.263,1.812-0.456,2.724-0.579c0.912-0.122,1.764-0.183,2.553-0.183
		c0.439,0,0.86-0.005,1.264-0.014c0.403-0.008,0.824-0.057,1.265-0.146v-0.551c0-0.943-0.016-1.888-0.041-2.833
		c-0.027-0.944-0.185-1.792-0.474-2.544c-0.288-0.752-0.764-1.36-1.421-1.823c-0.656-0.464-1.627-0.696-2.908-0.696
		c-0.754,0-1.433,0.07-2.038,0.209c-0.606,0.14-1.129,0.366-1.565,0.68c-0.438,0.313-0.796,0.732-1.066,1.255
		c-0.272,0.522-0.46,1.167-0.565,1.934h-4.077c0.018-1.298,0.292-2.398,0.828-3.302c0.534-0.903,1.231-1.64,2.092-2.21
		c0.859-0.57,1.836-0.986,2.936-1.25c1.095-0.263,2.212-0.395,3.353-0.395c2.909,0,5.073,0.658,6.486,1.974
		c1.411,1.315,2.119,3.403,2.119,6.262v17.997H118.35z M116.087,25.548c-0.825,0-1.724,0.093-2.696,0.277
		c-0.977,0.184-1.883,0.487-2.723,0.907c-0.844,0.419-1.548,0.977-2.121,1.671c-0.568,0.693-0.854,1.547-0.854,2.564
		c0,1.088,0.33,1.982,0.986,2.685c0.659,0.701,1.53,1.053,2.618,1.053c0.65,0,1.272-0.102,1.867-0.305
		c0.599-0.2,1.155-0.478,1.672-0.828s0.986-0.77,1.407-1.263c0.423-0.489,0.763-1.025,1.025-1.604
		c0.211-0.474,0.384-0.908,0.513-1.304c0.133-0.393,0.234-0.788,0.307-1.184c0.067-0.394,0.112-0.801,0.13-1.223
		c0.016-0.421,0.027-0.903,0.027-1.447H116.087z"/>
	<path fill="#333333" d="M135.9,14.603V30.39c0,1.368,0.336,2.428,1.004,3.183c0.669,0.756,1.733,1.133,3.197,1.133
		c0.51,0,0.941-0.039,1.294-0.119c0.351-0.078,0.756-0.207,1.214-0.382v3.29c-0.544,0.088-1.081,0.155-1.617,0.208
		c-0.534,0.055-1.074,0.08-1.618,0.08c-1.21,0-2.259-0.113-3.146-0.341c-0.885-0.23-1.626-0.601-2.223-1.119
		c-0.596-0.519-1.039-1.196-1.329-2.039c-0.288-0.842-0.433-1.885-0.433-3.132V14.603h-4.185v-3.078h4.185V5.552l3.656-2.316v8.289
		h6.92v3.078H135.9z"/>
	<path fill="#333333" d="M148.163,4.842V0h4.842v4.842H148.163z M148.742,37.178V11.525h3.656v25.653H148.742z"/>
	<path fill="#333333" d="M180.604,24.418c0,1.735-0.176,3.411-0.526,5.025c-0.351,1.613-0.939,3.038-1.764,4.276
		c-0.824,1.235-1.908,2.222-3.249,2.958c-1.342,0.737-3.014,1.105-5.012,1.105c-1.984,0-3.645-0.372-4.986-1.117
		c-1.343-0.746-2.421-1.738-3.237-2.974c-0.814-1.236-1.394-2.663-1.734-4.276c-0.343-1.612-0.515-3.278-0.515-4.998
		c0-1.737,0.172-3.413,0.515-5.026c0.341-1.614,0.92-3.048,1.734-4.302c0.816-1.254,1.895-2.258,3.237-3.013
		c1.342-0.753,3.002-1.131,4.986-1.131c1.998,0,3.67,0.373,5.012,1.118c1.341,0.746,2.425,1.746,3.249,3
		c0.824,1.254,1.413,2.693,1.764,4.315C180.428,21.001,180.604,22.681,180.604,24.418z M176.394,24.377
		c0-0.682-0.035-1.419-0.105-2.207c-0.07-0.788-0.193-1.563-0.368-2.326c-0.176-0.762-0.413-1.494-0.71-2.194
		c-0.3-0.701-0.686-1.323-1.157-1.866c-0.476-0.543-1.041-0.973-1.698-1.288c-0.658-0.315-1.425-0.473-2.302-0.473
		c-0.895,0-1.666,0.163-2.315,0.486c-0.649,0.324-1.207,0.753-1.673,1.288c-0.464,0.534-0.846,1.156-1.142,1.866
		c-0.301,0.709-0.532,1.444-0.698,2.207c-0.167,0.762-0.282,1.534-0.343,2.313c-0.061,0.779-0.092,1.511-0.092,2.193
		c0,0.684,0.031,1.411,0.092,2.183c0.061,0.77,0.176,1.535,0.343,2.298c0.166,0.762,0.397,1.499,0.698,2.208
		c0.296,0.71,0.678,1.329,1.142,1.865c0.466,0.534,1.023,0.963,1.673,1.287c0.649,0.325,1.421,0.487,2.315,0.487
		s1.671-0.158,2.327-0.474c0.659-0.314,1.225-0.745,1.698-1.287c0.474-0.544,0.859-1.165,1.157-1.867
		c0.299-0.699,0.536-1.431,0.712-2.194c0.175-0.761,0.292-1.532,0.354-2.311C176.363,25.793,176.394,25.061,176.394,24.377z"/>
	<path fill="#333333" d="M202.046,37.178V22.944c0-0.475,0.004-1.014,0.014-1.619c0.008-0.605-0.01-1.214-0.053-1.828
		c-0.045-0.614-0.13-1.215-0.263-1.803c-0.131-0.587-0.339-1.109-0.618-1.565c-0.28-0.456-0.648-0.825-1.105-1.105
		c-0.456-0.28-1.034-0.421-1.736-0.421c-0.859,0-1.635,0.203-2.329,0.606c-0.692,0.404-1.306,0.939-1.842,1.605
		c-0.534,0.667-1,1.425-1.394,2.275c-0.394,0.852-0.72,1.723-0.973,2.618c-0.256,0.895-0.444,1.772-0.567,2.631
		c-0.123,0.86-0.184,1.624-0.184,2.29v10.551h-3.658V11.525h3.658v5.919h0.105c0.315-0.982,0.702-1.872,1.158-2.67
		c0.454-0.798,1.008-1.481,1.656-2.052c0.649-0.57,1.399-1.008,2.25-1.315c0.852-0.307,1.838-0.46,2.96-0.46
		c1.123,0,2.1,0.223,2.934,0.671c0.832,0.447,1.517,1.039,2.053,1.776c0.536,0.736,0.936,1.578,1.196,2.525
		c0.264,0.947,0.396,1.93,0.396,2.947v18.313H202.046z"/>
</g>
<g>
	<path d="M122.259,58.044V42.466h1.765v15.578H122.259z"/>
	<path d="M134.044,58.044v-5.964c0-0.2,0.003-0.427,0.006-0.679c0.003-0.254-0.003-0.509-0.021-0.766
		c-0.021-0.258-0.059-0.51-0.112-0.755c-0.053-0.247-0.143-0.466-0.259-0.657c-0.118-0.19-0.273-0.346-0.462-0.464
		c-0.191-0.116-0.435-0.174-0.729-0.174c-0.358,0-0.684,0.084-0.975,0.252c-0.292,0.171-0.549,0.394-0.771,0.672
		c-0.226,0.279-0.422,0.599-0.586,0.954c-0.165,0.357-0.301,0.724-0.408,1.097c-0.105,0.376-0.185,0.743-0.237,1.104
		c-0.051,0.358-0.076,0.679-0.076,0.957v4.422h-1.534v-10.75h1.534v2.48h0.044c0.133-0.41,0.295-0.784,0.484-1.117
		c0.19-0.336,0.425-0.622,0.693-0.861c0.273-0.238,0.586-0.423,0.945-0.55c0.357-0.129,0.769-0.194,1.24-0.194
		c0.47,0,0.88,0.094,1.229,0.281c0.35,0.188,0.634,0.435,0.859,0.744c0.226,0.309,0.393,0.662,0.504,1.059
		c0.108,0.396,0.164,0.808,0.164,1.234v7.674H134.044z"/>
	<path d="M144.905,58.044v-1.83h-0.044c-0.088,0.309-0.225,0.592-0.409,0.849c-0.183,0.258-0.398,0.478-0.646,0.662
		c-0.244,0.184-0.517,0.323-0.813,0.424c-0.298,0.1-0.608,0.149-0.931,0.149c-0.517,0-0.963-0.079-1.347-0.237
		c-0.384-0.157-0.713-0.373-0.988-0.646c-0.275-0.271-0.497-0.587-0.672-0.948c-0.171-0.36-0.311-0.746-0.41-1.158
		c-0.105-0.409-0.176-0.833-0.214-1.267c-0.035-0.434-0.054-0.859-0.054-1.28c0-0.388,0.022-0.801,0.066-1.234
		c0.045-0.433,0.12-0.861,0.231-1.284c0.111-0.422,0.257-0.827,0.434-1.211c0.182-0.388,0.409-0.728,0.682-1.021
		c0.269-0.294,0.588-0.526,0.956-0.7c0.367-0.173,0.799-0.259,1.292-0.259c0.703,0,1.295,0.169,1.768,0.507
		c0.476,0.339,0.827,0.838,1.055,1.5h0.044v-6.593h1.534v15.578H144.905z M144.905,52.726c0-0.252-0.015-0.533-0.044-0.851
		c-0.028-0.314-0.079-0.636-0.148-0.962c-0.07-0.326-0.165-0.646-0.288-0.952c-0.121-0.309-0.273-0.582-0.457-0.821
		c-0.184-0.238-0.402-0.431-0.654-0.577c-0.255-0.146-0.552-0.221-0.888-0.221c-0.355,0-0.654,0.084-0.906,0.248
		c-0.25,0.164-0.458,0.38-0.627,0.645c-0.171,0.263-0.304,0.565-0.402,0.902c-0.101,0.338-0.177,0.683-0.228,1.034
		c-0.052,0.354-0.083,0.693-0.099,1.02c-0.016,0.327-0.022,0.615-0.022,0.864s0.01,0.522,0.029,0.814
		c0.017,0.294,0.053,0.586,0.108,0.877c0.056,0.289,0.132,0.57,0.233,0.846c0.098,0.276,0.231,0.519,0.396,0.728
		c0.164,0.21,0.37,0.378,0.61,0.501c0.244,0.124,0.53,0.188,0.861,0.188c0.314,0,0.599-0.072,0.851-0.216
		c0.249-0.142,0.468-0.331,0.654-0.565c0.188-0.235,0.345-0.504,0.473-0.805c0.129-0.301,0.234-0.608,0.315-0.926
		c0.079-0.315,0.141-0.627,0.175-0.935C144.886,53.254,144.905,52.974,144.905,52.726z"/>
	<path d="M156.086,58.044v-2.479h-0.044c-0.128,0.411-0.287,0.783-0.476,1.118c-0.19,0.333-0.421,0.619-0.694,0.859
		c-0.272,0.239-0.586,0.424-0.943,0.559c-0.354,0.131-0.767,0.197-1.229,0.197c-0.478,0-0.89-0.093-1.235-0.275
		c-0.345-0.185-0.629-0.43-0.857-0.738s-0.396-0.663-0.505-1.064c-0.104-0.4-0.157-0.817-0.157-1.251v-7.675h1.532v5.965
		c0,0.199-0.003,0.426-0.006,0.679c-0.003,0.254,0.003,0.509,0.022,0.767c0.019,0.257,0.054,0.509,0.11,0.754
		c0.054,0.247,0.14,0.465,0.257,0.656c0.12,0.191,0.272,0.347,0.465,0.463c0.19,0.118,0.436,0.176,0.727,0.176
		c0.36,0,0.684-0.084,0.973-0.253c0.284-0.168,0.54-0.394,0.769-0.672c0.229-0.28,0.425-0.597,0.586-0.954
		c0.161-0.356,0.294-0.719,0.396-1.092c0.104-0.37,0.18-0.735,0.231-1.097c0.053-0.36,0.079-0.68,0.079-0.959v-4.433h1.532v10.75
		H156.086z"/>
	<path d="M167.285,55.05c0,0.603-0.107,1.109-0.322,1.524c-0.219,0.415-0.507,0.749-0.871,1.003
		c-0.364,0.253-0.788,0.437-1.273,0.549c-0.488,0.114-0.998,0.172-1.533,0.172c-0.5,0-0.994-0.037-1.482-0.115
		c-0.49-0.077-0.972-0.189-1.449-0.337v-1.399c0.455,0.154,0.914,0.286,1.373,0.396c0.46,0.109,0.932,0.165,1.41,0.165
		c0.284,0,0.586-0.023,0.894-0.072c0.311-0.047,0.592-0.136,0.846-0.265c0.253-0.128,0.465-0.307,0.63-0.533
		c0.164-0.229,0.25-0.52,0.25-0.871c0-0.267-0.065-0.497-0.197-0.691c-0.126-0.192-0.288-0.367-0.478-0.518
		c-0.192-0.15-0.402-0.281-0.631-0.396c-0.228-0.113-0.443-0.226-0.639-0.336l-0.973-0.518c-0.316-0.171-0.624-0.342-0.919-0.513
		c-0.294-0.174-0.554-0.368-0.778-0.585c-0.225-0.218-0.406-0.471-0.542-0.76c-0.136-0.291-0.202-0.643-0.202-1.054
		c0-0.529,0.104-0.977,0.313-1.34c0.209-0.364,0.487-0.657,0.832-0.882c0.347-0.224,0.739-0.384,1.183-0.48
		c0.44-0.095,0.893-0.143,1.354-0.143c0.443,0,0.869,0.034,1.279,0.101c0.413,0.064,0.83,0.149,1.248,0.253v1.422
		c-0.389-0.145-0.804-0.262-1.24-0.352c-0.438-0.089-0.858-0.134-1.264-0.134c-0.213,0-0.444,0.024-0.694,0.071
		c-0.25,0.049-0.487,0.128-0.706,0.236c-0.222,0.11-0.406,0.255-0.555,0.436c-0.146,0.18-0.219,0.398-0.219,0.656
		c0,0.227,0.069,0.426,0.212,0.594c0.146,0.169,0.317,0.32,0.52,0.452c0.203,0.132,0.416,0.25,0.64,0.352
		c0.226,0.104,0.415,0.203,0.567,0.298l0.906,0.539c0.33,0.199,0.646,0.388,0.947,0.566c0.3,0.181,0.567,0.384,0.799,0.606
		c0.233,0.224,0.417,0.487,0.557,0.788C167.215,54.238,167.285,54.608,167.285,55.05z"/>
	<path d="M171.951,48.586v6.614c0,0.573,0.141,1.019,0.419,1.333c0.281,0.316,0.728,0.475,1.34,0.475
		c0.215,0,0.396-0.017,0.544-0.05c0.146-0.034,0.316-0.087,0.507-0.16v1.379c-0.229,0.036-0.452,0.065-0.678,0.087
		c-0.226,0.022-0.449,0.034-0.678,0.034c-0.507,0-0.947-0.048-1.317-0.143c-0.371-0.098-0.682-0.252-0.932-0.47
		c-0.25-0.216-0.434-0.502-0.557-0.854c-0.121-0.354-0.182-0.791-0.182-1.312v-6.934h-1.754v-1.292h1.754v-2.501l1.533-0.972v3.473
		h2.897v1.292H171.951z"/>
	<path d="M180.626,49.13c-0.463,0.291-0.837,0.67-1.119,1.135c-0.281,0.468-0.484,0.993-0.602,1.578
		c-0.117,0.584-0.177,1.17-0.177,1.758v4.443H177.2v-10.75h1.529v2.085h0.045c0.678-1.551,1.874-2.327,3.594-2.327v1.643
		C181.671,48.695,181.088,48.84,180.626,49.13z"/>
	<path d="M184.199,44.495v-2.028h2.029v2.028H184.199z M184.442,58.044v-10.75h1.534v10.75H184.442z"/>
	<path d="M190.793,51.649v0.642c0,0.586,0.076,1.164,0.224,1.73c0.152,0.565,0.384,1.068,0.698,1.511
		c0.31,0.439,0.705,0.797,1.185,1.069c0.478,0.271,1.045,0.407,1.706,0.407c0.378,0,0.732-0.026,1.07-0.077
		c0.34-0.052,0.691-0.125,1.059-0.221v1.267c-0.396,0.127-0.801,0.211-1.221,0.255c-0.413,0.044-0.828,0.066-1.25,0.066
		c-0.925,0-1.72-0.149-2.382-0.447c-0.658-0.297-1.203-0.712-1.625-1.245c-0.42-0.533-0.731-1.166-0.931-1.896
		c-0.2-0.732-0.298-1.531-0.298-2.397c0-0.699,0.073-1.365,0.216-2.003c0.142-0.635,0.377-1.192,0.706-1.675
		c0.326-0.481,0.757-0.866,1.295-1.152c0.536-0.287,1.198-0.43,1.982-0.43c0.625,0,1.172,0.103,1.645,0.303
		c0.469,0.203,0.861,0.486,1.175,0.849c0.311,0.364,0.545,0.795,0.7,1.291c0.151,0.495,0.231,1.041,0.231,1.637v0.518H190.793z
		 M195.06,49.553c-0.105-0.247-0.247-0.461-0.432-0.639c-0.184-0.177-0.398-0.317-0.649-0.419s-0.522-0.153-0.816-0.153
		c-0.317,0-0.599,0.052-0.855,0.153c-0.253,0.102-0.473,0.242-0.66,0.419c-0.188,0.178-0.344,0.392-0.467,0.639
		c-0.128,0.247-0.219,0.516-0.276,0.807h4.311C195.214,50.069,195.161,49.8,195.06,49.553z"/>
	<path d="M205.743,55.05c0,0.603-0.108,1.109-0.326,1.524c-0.216,0.415-0.507,0.749-0.871,1.003
		c-0.363,0.253-0.788,0.437-1.272,0.549c-0.485,0.114-0.996,0.172-1.533,0.172c-0.502,0-0.995-0.037-1.482-0.115
		c-0.488-0.077-0.973-0.189-1.451-0.337v-1.399c0.456,0.154,0.916,0.286,1.378,0.396c0.459,0.109,0.928,0.165,1.406,0.165
		c0.288,0,0.586-0.023,0.896-0.072c0.311-0.047,0.59-0.136,0.845-0.265c0.254-0.128,0.463-0.307,0.631-0.533
		c0.165-0.229,0.246-0.52,0.246-0.871c0-0.267-0.063-0.497-0.192-0.691c-0.13-0.192-0.288-0.367-0.48-0.518
		c-0.191-0.15-0.403-0.281-0.631-0.396c-0.229-0.113-0.44-0.226-0.64-0.336l-0.973-0.518c-0.317-0.171-0.62-0.342-0.916-0.513
		c-0.294-0.174-0.555-0.368-0.777-0.585c-0.226-0.218-0.407-0.471-0.542-0.76c-0.137-0.291-0.206-0.643-0.206-1.054
		c0-0.529,0.104-0.977,0.313-1.34c0.212-0.364,0.487-0.657,0.836-0.882c0.344-0.224,0.737-0.384,1.178-0.48
		c0.443-0.095,0.893-0.143,1.359-0.143c0.439,0,0.867,0.034,1.279,0.101c0.412,0.064,0.827,0.149,1.248,0.253v1.422
		c-0.394-0.145-0.804-0.262-1.242-0.352c-0.439-0.089-0.861-0.134-1.264-0.134c-0.215,0-0.446,0.024-0.696,0.071
		c-0.25,0.049-0.484,0.128-0.706,0.236c-0.222,0.11-0.405,0.255-0.552,0.436c-0.148,0.18-0.222,0.398-0.222,0.656
		c0,0.227,0.073,0.426,0.216,0.594c0.142,0.169,0.316,0.32,0.52,0.452c0.199,0.132,0.415,0.25,0.637,0.352
		c0.225,0.104,0.415,0.203,0.57,0.298l0.902,0.539c0.332,0.199,0.646,0.388,0.949,0.566c0.302,0.181,0.567,0.384,0.799,0.606
		c0.23,0.224,0.418,0.487,0.558,0.788C205.672,54.238,205.743,54.608,205.743,55.05z"/>
</g>
</svg>
