<?xml version="1.0" encoding="utf-8"?>
<!-- Generator: Adobe Illustrator 16.0.0, SVG Export Plug-In . SVG Version: 6.00 Build 0)  -->
<!DOCTYPE svg PUBLIC "-//W3C//DTD SVG 1.1//EN" "http://www.w3.org/Graphics/SVG/1.1/DTD/svg11.dtd">
<svg version="1.1" id="Layer_1" xmlns="http://www.w3.org/2000/svg" xmlns:xlink="http://www.w3.org/1999/xlink" x="0px" y="0px"
	 width="364px" height="103px" viewBox="0 0 364 103" enable-background="new 0 0 364 103" xml:space="preserve">
<g id="Image" display="none">
	
		<image display="inline" overflow="visible" enable-background="new    " width="364" height="103" id="jf_xA0_Image" xlink:href="6DB275EA.png" >
	</image>
</g>
<g id="J_x26_F">
	<path fill="#777777" d="M75.57,65.109L75.5,77.5c0,0,0.16,8.87-8.28,15.25c-0.2-0.77-0.3-1.57-0.3-2.359
		c0-5.391,3.61-8.391,6.64-9.971l0.27-0.14v-0.71L73.7,79.43c-1.6-1.76-2.62-4.38-2.62-6.68C71.08,69.79,72.61,66.811,75.57,65.109z
		"/>
	<path fill="#777777" d="M75.88,6.25l-0.31,57.7c-3.62,1.83-5.49,5.33-5.49,8.8c0,2.391,1,5.1,2.59,7.02
		c-4.42,2.44-6.75,6.102-6.75,10.621c0,1.01,0.14,2.01,0.44,2.979c-4.75,3.28-11.98,5.75-22.98,5.75
		c-32.5,0-33.13-25.24-33.13-25.24v-14.5h24.5V70c0,0,1,7.04,7.63,7.04c6.62,0,7.41-7.62,7.41-7.62V6.25H75.88z"/>
	<path fill="#777777" d="M90.84,71.67c0,2.28-0.9,4.28-2.72,6.04V65.811C89.84,67.23,90.84,69.26,90.84,71.67z"/>
	<path fill="#777777" d="M94.2,93.311c1.8,2.029,3.46,3.909,5.21,5.811h-8.19c-0.56-0.61-1.14-1.23-1.77-1.939l-0.31-0.351
		l-0.37,0.28c-0.21,0.17-0.43,0.318-0.65,0.47V86.49c0.6,0.68,1.18,1.31,1.73,1.88l0.44,0.45l0.34-0.53
		c1.4-2.181,2.54-5.38,3.08-8.62h6.31c-1.05,5.54-2.96,9.79-5.81,12.971l-0.3,0.34L94.2,93.311z"/>
	<path fill="#777777" d="M115.25,29.25v12h36.25V62.5h-35.75v36.62h-14.98c-1.88-2.03-3.63-4-5.53-6.14
		c2.92-3.41,4.84-7.9,5.87-13.722l0.11-0.59h-8.37L92.79,79.1c-0.45,2.979-1.43,5.959-2.67,8.101c-0.63-0.67-1.3-1.42-2-2.21v-5.94
		c2.5-2.069,3.72-4.51,3.72-7.38c0-3.029-1.39-5.55-3.72-7.13V6.25h69.5v23H115.25z"/>
	<g id="_x26_">
		<path fill="#777777" d="M94.2,93.311l-0.29-0.33l0.3-0.34c2.85-3.181,4.76-7.431,5.81-12.971h-6.31
			c-0.54,3.24-1.68,6.439-3.08,8.62l-0.34,0.53l-0.44-0.45c-0.55-0.57-1.13-1.2-1.73-1.88c-0.61-0.682-1.25-1.41-1.91-2.16
			c-0.82-0.93-1.65-1.87-2.47-2.771l-0.18-0.199l0.18-0.699l0.2-0.102c1.72-0.869,3.11-1.818,4.18-2.85
			c1.82-1.76,2.72-3.76,2.72-6.04c0-2.41-1-4.438-2.72-5.86c-1.64-1.358-3.94-2.158-6.65-2.158c-2.36,0-4.33,0.55-5.9,1.459
			c-2.96,1.699-4.49,4.681-4.49,7.641c0,2.3,1.02,4.92,2.62,6.68l0.13,0.141v0.711l-0.27,0.14C70.53,82,66.92,85,66.92,90.391
			c0,0.789,0.1,1.59,0.3,2.359c1.05,3.99,4.84,7.439,11.88,7.439c3.47,0,6.5-0.869,9.02-2.609c0.22-0.15,0.44-0.3,0.65-0.471
			l0.37-0.279l0.31,0.35c0.63,0.711,1.21,1.33,1.77,1.94c0.15,0.16,0.3,0.319,0.45,0.479h8.18c-0.15-0.16-0.3-0.319-0.44-0.479
			C97.66,97.22,96,95.34,94.2,93.311z M81.2,67.77c2.42,0,3.68,2.07,3.68,4.121c0,2.369-1.54,3.899-4.2,5.75l-0.36,0.25l-0.3-0.33
			c-1.8-1.979-2.61-3.699-2.61-5.561C77.41,69.95,78.74,67.77,81.2,67.77z M85.59,93.29c-1.32,1.25-3.27,1.97-5.36,1.97
			c-3.79,0-6.54-2.619-6.54-6.22c0-2.14,1.03-3.97,3.07-5.42l0.36-0.261l0.3,0.33c2.72,3.069,5.82,6.521,8.18,8.881l0.36,0.359
			L85.59,93.29z"/>
	</g>
	<g id="Line">
		<line fill="#777777" x1="173.125" y1="27.375" x2="173.125" y2="74.125"/>
		<rect x="172.125" y="27.375" fill="#777777" width="2" height="46.75"/>
	</g>
	<g>
		<path fill="#777777" d="M188.868,50.844c0-1.305-0.052-2.329-0.103-3.353h1.971l0.102,1.996h0.077
			c0.69-1.177,1.843-2.277,3.915-2.277c1.663,0,2.943,1.023,3.48,2.482h0.051c0.384-0.716,0.896-1.228,1.406-1.612
			c0.742-0.563,1.537-0.87,2.713-0.87c1.664,0,4.095,1.075,4.095,5.374v7.293h-2.2v-7.012c0-2.405-0.896-3.813-2.688-3.813
			c-1.306,0-2.276,0.947-2.688,2.021c-0.104,0.333-0.18,0.742-0.18,1.126v7.677h-2.2v-7.421c0-1.996-0.87-3.403-2.584-3.403
			c-1.382,0-2.431,1.126-2.789,2.252c-0.128,0.333-0.181,0.717-0.181,1.101v7.472h-2.199L188.868,50.844L188.868,50.844z"/>
		<path fill="#777777" d="M222.037,56.908c0,1.074,0.051,2.124,0.18,2.969h-2.021l-0.204-1.561h-0.077
			c-0.665,0.972-2.021,1.842-3.787,1.842c-2.508,0-3.787-1.766-3.787-3.557c0-2.994,2.661-4.633,7.446-4.606V51.74
			c0-1.023-0.281-2.892-2.813-2.866c-1.178,0-2.381,0.333-3.25,0.921l-0.513-1.51c1.022-0.64,2.533-1.075,4.095-1.075
			c3.813,0,4.733,2.584,4.733,5.067L222.037,56.908L222.037,56.908z M219.837,53.557c-2.457-0.052-5.246,0.385-5.246,2.789
			c0,1.484,0.974,2.149,2.099,2.149c1.639,0,2.688-1.022,3.045-2.072c0.076-0.229,0.104-0.485,0.104-0.717L219.837,53.557
			L219.837,53.557z"/>
		<path fill="#777777" d="M237.573,59.441c-0.589,0.281-1.894,0.717-3.558,0.717c-3.736,0-6.166-2.533-6.166-6.346
			c0-3.813,2.608-6.603,6.652-6.603c1.33,0,2.507,0.333,3.121,0.665l-0.512,1.715c-0.537-0.282-1.383-0.589-2.609-0.589
			c-2.841,0-4.376,2.124-4.376,4.708c0,2.866,1.842,4.632,4.299,4.632c1.279,0,2.124-0.308,2.765-0.589L237.573,59.441z"/>
		<path fill="#777777" d="M243.309,41.709h2.252v7.728h0.051c0.359-0.64,0.922-1.228,1.613-1.586c0.664-0.409,1.457-0.64,2.303-0.64
			c1.662,0,4.324,1.023,4.324,5.297v7.369H251.6v-7.113c0-2.021-0.742-3.685-2.865-3.685c-1.459,0-2.586,1.023-3.021,2.251
			c-0.128,0.307-0.153,0.64-0.153,1.075v7.472h-2.252V41.709z"/>
		<path fill="#777777" d="M261.686,45.214c-0.845,0-1.408-0.665-1.408-1.458s0.59-1.433,1.459-1.433c0.871,0,1.434,0.64,1.434,1.433
			s-0.563,1.458-1.458,1.458H261.686z M260.609,59.877V47.492h2.252v12.385H260.609z"/>
		<path fill="#777777" d="M269.695,50.844c0-1.305-0.024-2.329-0.103-3.353h1.996l0.128,2.021h0.051
			c0.614-1.151,2.049-2.303,4.096-2.303c1.714,0,4.376,1.023,4.376,5.271v7.396h-2.253v-7.14c0-1.996-0.741-3.686-2.865-3.686
			c-1.459,0-2.609,1.049-3.02,2.303c-0.104,0.281-0.153,0.691-0.153,1.048v7.473h-2.253V50.844L269.695,50.844z"/>
		<path fill="#777777" d="M288.277,54.068c0.051,3.045,1.971,4.299,4.223,4.299c1.611,0,2.609-0.281,3.43-0.614l0.408,1.587
			c-0.793,0.358-2.175,0.793-4.146,0.793c-3.787,0-6.09-2.533-6.09-6.244c0-3.761,2.227-6.704,5.834-6.704
			c4.043,0,5.092,3.557,5.092,5.834c0,0.461-0.024,0.818-0.075,1.074L288.277,54.068z M294.854,52.456
			c0.025-1.407-0.588-3.659-3.096-3.659c-2.304,0-3.275,2.098-3.455,3.659H294.854z"/>
		<path fill="#777777" d="M312.515,45.214c-0.844,0-1.406-0.665-1.406-1.458s0.589-1.433,1.459-1.433S314,42.963,314,43.756
			s-0.563,1.458-1.458,1.458H312.515z M311.44,59.877V47.492h2.252v12.385H311.44z"/>
		<path fill="#777777" d="M320.526,50.844c0-1.305-0.025-2.329-0.104-3.353h1.996l0.128,2.021h0.051
			c0.614-1.151,2.049-2.303,4.096-2.303c1.714,0,4.376,1.023,4.376,5.271v7.396h-2.252v-7.14c0-1.996-0.742-3.686-2.866-3.686
			c-1.459,0-2.61,1.049-3.021,2.303c-0.103,0.281-0.152,0.691-0.152,1.048v7.473h-2.252V50.844L320.526,50.844z"/>
		<path fill="#777777" d="M346.656,59.441c-0.589,0.281-1.895,0.717-3.558,0.717c-3.735,0-6.167-2.533-6.167-6.346
			c0-3.813,2.609-6.603,6.653-6.603c1.33,0,2.507,0.333,3.121,0.665l-0.512,1.715c-0.537-0.282-1.382-0.589-2.609-0.589
			c-2.841,0-4.376,2.124-4.376,4.708c0,2.866,1.842,4.632,4.299,4.632c1.279,0,2.124-0.308,2.765-0.589L346.656,59.441z"/>
		<path fill="#777777" d="M353.338,60.158c-0.87,0-1.482-0.69-1.482-1.612c0-0.921,0.64-1.61,1.534-1.61
			c0.896,0,1.511,0.664,1.511,1.61c0,0.922-0.614,1.612-1.535,1.612H353.338z"/>
	</g>
</g>
</svg>
