<?xml version="1.0" encoding="utf-8"?>
<!-- Generator: Adobe Illustrator 16.0.0, SVG Export Plug-In . SVG Version: 6.00 Build 0)  -->
<!DOCTYPE svg PUBLIC "-//W3C//DTD SVG 1.1//EN" "http://www.w3.org/Graphics/SVG/1.1/DTD/svg11.dtd">
<svg version="1.1" xmlns="http://www.w3.org/2000/svg" xmlns:xlink="http://www.w3.org/1999/xlink" x="0px" y="0px"
	 width="173.906px" height="48.373px" viewBox="224.618 362.697 173.906 48.373"
	 enable-background="new 224.618 362.697 173.906 48.373" xml:space="preserve">
<g id="Layer_1">
	<g>
		<g>
			<linearGradient id="SVGID_1_" gradientUnits="userSpaceOnUse" x1="246.2588" y1="370.7646" x2="359.1963" y2="370.7646">
				<stop  offset="0" style="stop-color:#963D97"/>
				<stop  offset="0.5522" style="stop-color:#EC6D41"/>
				<stop  offset="0.9973" style="stop-color:#FCCB2E"/>
			</linearGradient>
			<path fill="url(#SVGID_1_)" d="M358.972,369.82c-0.481-0.096-1.188,0.161-1.412-0.256h-0.577
				c-0.033-0.065-0.161-0.129-0.097-0.225c-0.322-0.064-0.867,0.192-0.932-0.225h-0.417c-0.096,0-0.32-0.032-0.289-0.224
				l-1.314-0.064c-0.128-0.321-0.706-0.064-0.994-0.225c-0.224-0.481-0.802-0.032-1.155-0.192c-0.257-0.449-0.865-0.192-1.38-0.289
				c-0.191-0.545-1.025,0.129-1.442-0.32c0.03-0.032,0.063-0.064,0.063-0.128l0.865-0.128c-0.096-0.225-0.256-0.289-0.354-0.514
				l-1.091-0.096c-0.032-0.128-0.16-0.224-0.289-0.192c-0.289-0.096-0.385,0.16-0.448,0.353c0.386,0.032,0.32,0.321,0.674,0.449
				c-0.481,0.192-1.155,0.128-1.668,0.064c-0.289-0.385-1.22,0.064-1.444-0.385c-0.449-0.096-1.123,0.16-1.38-0.257
				c-1.219,0.257-1.732-0.449-2.823-0.289c-0.289-0.417-0.994-0.161-1.508-0.225c-0.257,0-0.129-0.385-0.417-0.16
				c-0.097-0.033-0.224-0.161-0.161-0.289c0.449-0.032,1.219-0.225,1.444,0.16h0.737v-0.16c-0.193,0.064-0.129-0.161-0.225-0.225
				h-1.573c-0.031-0.095-0.16-0.128-0.096-0.256c-0.384-0.065-1.026,0.192-1.155-0.225h-1.442c-0.193-0.161-0.675,0.16-0.644-0.289
				c-1.187,0.16-1.764-0.257-2.887-0.289c-0.032-0.224-0.289-0.128-0.45-0.16c-0.063,0.417-0.577,0.16-0.866,0.224
				c-0.064-0.064-0.159-0.128-0.128-0.224h-0.353c-0.065-0.065-0.161-0.129-0.097-0.225c-0.771-0.289-0.931,0.481-1.7,0.225
				c-0.161,0.128,0.128,0.224,0.128,0.385c0.578,0.096,1.348-0.16,1.669,0.257c0.321-0.097,0.738-0.353,1.219-0.257
				c0.417,0.513,1.316,0,1.797,0.481l1.829,0.064c-0.032,0.45,0.513,0.032,0.643,0.321c-0.257,0.321-0.674,0.161-1.026,0.129
				c-0.417-0.417-1.252-0.161-1.958-0.225l-0.128-0.225h-2.6c-0.064-0.096-0.16-0.129-0.129-0.257h-2.116l-0.13-0.096
				c0.193-0.097,0.226-0.514,0.515-0.514c-0.192-0.45-0.898-0.321-1.315-0.289c-0.192,0.449-0.321-0.128-0.642-0.064
				c-0.098-0.417-0.771-0.192-1.092-0.192v0.353h0.16c0.16,0.064,0.258,0.129,0.289,0.289l2.149,0.064v0.161
				c-0.899,0.192-1.477-0.097-2.312,0.064c-0.096-0.097-0.352,0.032-0.288-0.225l-0.803,0.064c-0.063,0.096-0.191,0.128-0.288,0.096
				c-0.063,0-0.063-0.097-0.063-0.161h-0.578c-0.674,0.096-0.545-0.738-0.93-0.995c-0.193,0.032-0.418-0.033-0.578,0.064
				c-0.161,0.193,0,0.482-0.226,0.642c-0.064-0.065-0.159-0.129-0.128-0.225c-0.224,0-0.257-0.32-0.32-0.481
				c-0.481-0.097-1.221,0.256-1.411-0.289c-0.45,0.129-1.669-0.353-1.478,0.642c-0.064,0.386-0.385,0.321-0.642,0.225
				c-0.127-0.288,0.161-0.417,0.353-0.513l-0.128-0.097c-0.224-0.513-1.154,0.032-1.443-0.481l-0.16,0.225h-2.149
				c-0.063-0.065-0.161-0.129-0.161-0.225c-0.385,0.064-0.994-0.192-1.122,0.225c-0.226-0.032-0.514,0.129-0.674-0.096
				c-0.192-0.128-0.546-0.225-0.643-0.417c-0.449,0.61-1.251,0.064-1.894,0.225c-0.063-0.065-0.16-0.129-0.127-0.225h-0.354
				c0,0.064,0.031,0.16-0.064,0.192c-0.128,0.161-0.353-0.032-0.385-0.192h-2.888c-0.128,0.064-0.257-0.353-0.289-0.064
				l-0.225-0.225l-0.128,0.225h-1.797c-0.033,0.129-0.161,0.321-0.353,0.257c-0.193,0.032-0.385-0.032-0.449-0.257
				c-0.353,0.096-0.93-0.16-1.091,0.257l-4.621,0.032c-0.288,0.224,0.033,0.353,0.097,0.545c-0.161,0.289-0.706-0.128-0.674,0.321
				c-0.128,0-0.289,0.032-0.353-0.096c0.129-0.161,0.161-0.353,0.225-0.514c-0.033-0.064-0.289-0.129-0.225-0.289
				c-0.545,0.129-1.251-0.32-1.572,0.225c-18.289-0.08-43.878,7.156-43.876,7.152c-4.092,0.883-5.134,2.968-5.134,2.968
				c-0.803,2.006,1.042,4.332,1.042,4.332c1.845,2.727,8.021-1.123,8.021-1.123c15.16-6.177,42.546-8.198,42.546-8.198h7.476
				c0-0.064,0.16-0.321,0.321-0.225c0.225,0.481,0.833,0.225,1.284,0.289c0.16-0.514,0.931-0.257,1.315-0.225
				c0.063,0.097,0.097,0.289,0.289,0.225c0.127,0.033,0.224-0.064,0.191-0.192c0.706-0.096,1.67-0.032,2.472-0.032
				c0.063,0.064,0.159,0.129,0.129,0.225h1.251c0.192-0.417,0.865-0.033,1.219-0.225c0.16-0.031,0.578-0.031,0.578,0.225h0.289
				c0.161-0.514,0.77,0,1.059-0.225c0.257-0.417-0.289-0.61-0.129-1.059c0.096-0.225,0.224-0.321,0.449-0.353
				c0.128,0.161,0.48-0.064,0.417,0.257l1.38,0.032c0.193,0.353,0.097-0.032,0.353,0c0.032,0.161,0.13,0.257,0.289,0.289
				c0.064,0.321-0.289,0.096-0.417,0.257c0.032,0.128-0.032,0.289,0.064,0.385c0.417,0.064,1.025-0.129,1.283,0.192
				c0.289,0.321,0.802,0.129,1.025,0.514c0.064-0.546,0.931,0.128,0.867-0.578c-0.802,0.224-0.61-0.899-1.155-0.931l0.128-0.128
				c0.739-0.256,0.771,0.546,1.221,0.706c-0.032-0.064,0-0.096,0.031-0.128c-0.288-0.161,0.031-0.45,0.192-0.578
				c0.032,0.256,0.354,0.224,0.385,0.481c0.226-0.064,0.579,0.129,0.643-0.192c0.289,0.161,0.354,0.385,0.225,0.706
				c-0.16,0.738,0.771,0.225,0.771,0.866l0.513-0.449c-0.032-0.417-0.321-0.61-0.642-0.77c-0.417-0.386,0.29-0.322,0.354-0.578
				c0.481,0.321,1.316,0.096,1.797,0.417l0.097-0.192l0.191,0.257c0.417-0.097,0.803-0.257,1.091-0.546
				c0.129,0.161,0.546-0.096,0.515,0.257c-0.032,0.064-0.097,0.032-0.16,0.032c0,0.096-0.065,0.193,0.063,0.257
				c0.385-0.128,0.545,0.16,0.609,0.449c0.257-0.064,0.77,0.192,0.77-0.225c-0.353-0.994,0.771-0.449,1.027-0.93
				c0.16,0.129,0.192,0.289,0.417,0.225c-0.129-0.577,0.577-0.417,0.963-0.449c0.127,0.321,0.353,0.417,0.48,0.674
				c0.449,0.129,0.514-0.16,0.674-0.449c0.257,0,0.514-0.032,0.706,0.064c0.321,0.321,0.963,0.097,1.444,0.161
				c0.064,0.288,0.353,0.16,0.353,0.481h0.674c0.128-0.192,0.225-0.642,0.578-0.481c0.064,0.064,0.16,0.128,0.128,0.225
				c0.417,0.096,1.155-0.16,1.283,0.257c0.225,0.16,0.739-0.129,0.803,0.224c0.16,0.161,0.545-0.096,0.577,0.225h0.16
				c0.643-0.16,0.643,0.545,1.348,0.289c0.289-0.129-0.096-0.386-0.128-0.578c0.385-0.193,0.963-0.128,1.38-0.064
				c0.161,0.353,0.771,0.032,1.06,0.289c0,0.193-0.258,0.161-0.289,0.225c0.097,0.192,0.064,0.481,0.385,0.353
				c0.064,0.064,0.192,0.128,0.192,0.224c0.096,0,0.258,0.064,0.32-0.032l-0.32-0.578c0.545-0.128,1.154-0.064,1.732-0.064
				l0.096,0.225l2.087,0.064l0.129,0.225c0.576,0,1.218,0,1.731-0.225c0,0.482,0.642,0,0.737,0.385
				c0.418,0.161,0.898-0.096,1.22,0.257c0-0.224,0.226-0.192,0.385-0.192c0.065,0.064,0.161,0.096,0.13,0.192
				c0.128,0.033,0.256-0.064,0.287-0.192c0.193,0.032,0.417-0.032,0.578,0.064v0.064c0.257,0.193,0.77-0.16,0.866,0.289
				c0.481,0.064,1.219-0.192,1.443,0.225h1.894c0.096,0.128,0.385,0,0.289,0.224l1.059,0.064c0.032,0.417,0.675,0,0.738,0.449
				c0.128,0,0.32,0.064,0.417-0.032L358.972,369.82z"/>
		</g>
		<polygon fill="#ED3A42" points="245.668,379.787 241.766,401.264 249.477,401.289 253.38,379.787 		"/>
		<path fill="#ED3A42" d="M308.52,379.63c-3.049-0.16-6.1,3.53-6.1,3.53c-0.01-1.62,0.76-2.89,0.76-2.89h-7.81l-5.48,30.78
			l7.71,0.021l2.1-12.32c1.32,3.01,3.85,3.5,3.85,3.5c7.38,1.6,8.98-10.27,8.98-10.27C314.94,379.95,308.52,379.63,308.52,379.63z
			 M304.71,391.28c-0.61,2.61-1.91,4.54-2.91,4.31c-0.99-0.23-1.31-2.54-0.7-5.15s1.91-4.55,2.91-4.31
			C305.01,386.36,305.32,388.67,304.71,391.28z"/>
		<path fill="#ED3A42" d="M370.8,369.52l-2.42,13.77c-1.32-3.01-3.85-3.5-3.85-3.5c-7.38-1.6-8.98,10.27-8.98,10.27
			c-2.41,12.03,4.01,12.35,4.01,12.35c3.051,0.16,6.091-3.53,6.091-3.53c0.06,1.62-0.721,2.89-0.721,2.89h7.78l5.8-32.22
			L370.8,369.52z M366.98,391.6c-0.61,2.62-1.921,4.55-2.91,4.31c-1-0.23-1.311-2.54-0.7-5.15c0.61-2.61,1.91-4.55,2.91-4.31
			C367.27,386.68,367.59,388.99,366.98,391.6z"/>
		<polygon fill="#ED3A42" points="390.872,379.953 386.171,391.984 385.735,379.953 377.828,379.953 380.556,400.648 
			374.78,410.754 383.282,410.754 398.523,379.953 		"/>
		<path fill="#ED3A42" d="M391.42,401.89c-1.87,0-3.45,1.431-3.45,3.38c0,1.971,1.58,3.41,3.45,3.41c1.85,0,3.43-1.439,3.43-3.41
			C394.85,403.32,393.27,401.89,391.42,401.89z M391.42,408.11c-1.55,0-2.77-1.2-2.77-2.841c0-1.6,1.21-2.819,2.77-2.819
			c1.54,0,2.75,1.22,2.75,2.819C394.17,406.91,392.96,408.11,391.42,408.11z"/>
		<path fill="#ED3A42" d="M391.97,405.52c0.57-0.069,1.011-0.38,1.011-1.079c0-0.771-0.461-1.12-1.381-1.12h-1.489v3.92h0.59v-1.7
			h0.68l1.04,1.7h0.66L391.97,405.52z M390.7,405.04v-1.21h0.81c0.41,0,0.851,0.09,0.851,0.57c0,0.6-0.45,0.64-0.95,0.64H390.7z"/>
		<path fill="#ED3A42" d="M262.008,383.516l0.677-3.729h-7.711l-3.904,21.478l7.711,0.024l1.901-10.47
			c2.392-4.887,6.127-2.204,6.127-2.204l1.444-8.824C265.997,379.3,263.561,381.631,262.008,383.516L262.008,383.516z"/>
		<path fill="#ED3A42" d="M325.7,379.91c-5.811-0.01-11.41,4.93-12.51,11.03c-1.11,6.1,2.699,11.041,8.51,11.041
			c4.81,0,8.7-3.061,10.53-7.57l-7.61,0.02c-0.47,1.7-2,1.54-2,1.54c-2.19-0.16-1.7-3.52-1.7-3.52h11.95
			c0.08-0.34,0.149-0.68,0.22-1.02C334.19,385.33,331.5,379.91,325.7,379.91z M326.17,388.13h-4.25c0.72-2.84,2.53-2.76,2.521-2.76
			C326.37,385.45,326.17,388.13,326.17,388.13z"/>
		<path fill="#ED3A42" d="M346.23,379.91c-5.801-0.01-11.4,4.93-12.511,11.03c-1.1,6.1,2.71,11.041,8.511,11.041
			c4.81,0,8.699-3.061,10.529-7.57l-7.6,0.02c-0.48,1.7-2,1.54-2,1.54c-2.19-0.16-1.71-3.52-1.71-3.52h11.95
			c0.08-0.34,0.159-0.68,0.22-1.02C354.73,385.33,352.04,379.91,346.23,379.91z M346.7,388.13h-4.25c0.72-2.84,2.53-2.76,2.53-2.76
			C346.91,385.45,346.7,388.13,346.7,388.13z"/>
		<path fill="#ED3A42" d="M275.874,391.58c1.685,3.129,4.932,3.246,4.932,3.246c1.925-0.119,2.566-1.203,2.566-1.203
			c1.364-1.924-0.642-3.006-0.642-3.006c-3.168-1.685-4.292-4.813-4.292-4.813c-1.562-3.434-0.571-6.743,0.84-9.266
			c4.242-7.581,12.166-5.525,15.124-4.641l-1.563,9.299c-1.684-3.128-4.011-3.449-4.011-3.449c-1.765-0.121-2.566,1.204-2.566,1.204
			c-1.123,1.885,0.642,3.008,0.642,3.008c3.249,2.005,4.292,4.813,4.292,4.813c1.562,3.434,0.456,6.681-0.84,9.267
			c-4.693,9.361-16.326,4.691-16.326,4.691L275.874,391.58L275.874,391.58z"/>
		<path fill="#ED3A42" d="M226.46,391.58c1.685,3.129,4.932,3.246,4.932,3.246c1.925-0.119,2.567-1.203,2.567-1.203
			c1.364-1.924-0.642-3.006-0.642-3.006c-3.168-1.685-4.291-4.813-4.291-4.813c-1.563-3.434-0.572-6.743,0.84-9.266
			c4.242-7.581,12.166-5.525,15.124-4.641l-1.563,9.299c-1.685-3.128-4.011-3.449-4.011-3.449c-1.765-0.121-2.567,1.204-2.567,1.204
			c-1.123,1.885,0.642,3.008,0.642,3.008c3.249,2.005,4.292,4.813,4.292,4.813c1.562,3.434,0.456,6.681-0.84,9.267
			c-4.693,9.361-16.326,4.691-16.326,4.691L226.46,391.58L226.46,391.58z"/>
	</g>
</g>
<g id="Layer_2">
</g>
</svg>
